# 3ds Max Wavefront OBJ Exporter v0.97b - (c)2007 guruware
# File Created: 12.06.2023 01:09:08

mtllib land2.mtl

#
# object land2
#

v  19.9610 0.0000 -53.6702
v  16.4953 0.0000 -62.8272
v  16.4953 -9.8217 -62.8272
v  19.9610 -9.8217 -53.6702
v  35.4759 0.0000 -39.4577
v  35.4759 -9.8217 -39.4577
v  47.2874 0.0000 -41.8790
v  47.2874 -9.8217 -41.8790
v  49.2719 0.0000 -77.7327
v  49.1435 0.0000 -54.2375
v  49.1435 -9.8217 -54.2375
v  49.2719 -9.8217 -77.7327
v  17.0732 0.0000 -82.2561
v  35.4759 0.0000 -86.9789
v  35.4759 -9.8217 -86.9789
v  17.0732 -9.8217 -82.2561
v  23.8646 -23.5657 -63.5244
v  23.4736 -21.4576 -56.4396
v  34.9983 -21.4576 -45.8823
v  43.7722 -21.4576 -47.6809
v  45.1509 -21.4576 -56.8611
v  45.2463 -21.4576 -74.3137
v  34.9983 -21.4576 -81.1820
v  21.3285 -21.4576 -77.6738
v  33.6190 -34.2198 -64.4387
# 25 vertices

vn -0.8279 0.0000 0.5609
vn -0.9862 -0.0000 0.1653
vn -0.9584 -0.2372 0.1589
vn -0.8138 -0.1775 0.5534
vn -0.2665 0.0000 0.9638
vn -0.2432 -0.2258 0.9433
vn 0.7257 0.0000 0.6880
vn 0.6943 -0.2350 0.6803
vn 0.8835 0.0000 -0.4684
vn 0.9970 0.0000 0.0772
vn 0.9820 -0.1711 0.0799
vn 0.8616 -0.1963 -0.4681
vn -0.7810 0.0000 -0.6246
vn 0.1689 -0.0000 -0.9856
vn 0.1610 -0.2168 -0.9628
vn -0.7557 -0.2231 -0.6157
vn -0.7977 -0.5954 0.0955
vn -0.7780 -0.5034 0.3758
vn -0.2250 -0.6205 0.7513
vn 0.5761 -0.6361 0.5134
vn 0.5915 -0.8053 0.0407
vn 0.7313 -0.5669 -0.3792
vn 0.1366 -0.6093 -0.7811
vn -0.6720 -0.6017 -0.4317
vn -0.0028 -1.0000 0.0058
# 25 vertex normals

vt 0.7849 0.1173 0.0000
vt 0.8708 0.2012 0.0000
vt 0.7875 0.2700 0.0000
vt 0.7204 0.2024 0.0000
vt 0.5690 0.0177 0.0000
vt 0.5562 0.1191 0.0000
vt 0.4287 0.0285 0.0000
vt 0.4576 0.1208 0.0000
vt 0.1115 0.2603 0.0000
vt 0.3046 0.0939 0.0000
vt 0.3607 0.1785 0.0000
vt 0.1811 0.3410 0.0000
vt 0.9770 0.4023 0.0000
vt 0.9662 0.6339 0.0000
vt 0.8520 0.6046 0.0000
vt 0.8728 0.4276 0.0000
vt 0.8768 0.8353 0.0000
vt 0.7576 0.7763 0.0000
vt 0.6694 0.3570 0.0000
vt 0.6516 0.2917 0.0000
vt 0.5498 0.2241 0.0000
vt 0.4786 0.2234 0.0000
vt 0.4248 0.2812 0.0000
vt 0.3035 0.4158 0.0000
vt 0.7299 0.5642 0.0000
vt 0.7598 0.4427 0.0000
vt 0.6379 0.6639 0.0000
vt 0.5362 0.4430 0.0000
# 28 texture coords

o land2
g land2
usemtl wire_184155229
s 1
f 1/1/1 2/2/2 3/3/3 4/4/4 
s 2
f 5/5/5 1/1/1 4/4/4 6/6/6 
s 1
f 7/7/7 5/5/5 6/6/6 8/8/8 
s 2
f 9/9/9 10/10/10 11/11/11 12/12/12 
s 1
f 13/13/13 14/14/14 15/15/15 16/16/16 
s 4
f 14/14/14 9/17/9 12/18/12 15/15/15 
f 17/19/17 18/20/18 4/4/4 3/3/3 
s 8
f 6/6/6 4/4/4 18/20/18 19/21/19 
s 4
f 8/8/8 6/6/6 19/21/19 20/22/20 
s 8
f 12/12/12 11/11/11 21/23/21 22/24/22 
s 2
f 16/16/16 15/15/15 23/25/23 24/26/24 
s 16
f 15/15/15 12/18/12 22/27/22 23/25/23 
s 1
f 17/19/17 25/28/25 18/20/18 
s 2
f 19/21/19 18/20/18 25/28/25 
s 16
f 20/22/20 19/21/19 25/28/25 
s 32
f 22/24/22 21/23/21 20/22/20 25/28/25 
s 8
f 24/26/24 23/25/23 25/28/25 
s 4
f 23/25/23 22/27/22 25/28/25 
s 8
f 2/2/2 13/13/13 16/16/16 3/3/3 
s 2
f 10/10/10 7/7/7 8/8/8 11/11/11 
s 4
f 3/3/3 16/16/16 24/26/24 17/19/17 
s 8
f 11/11/11 8/8/8 20/22/20 21/23/21 
s 1
f 17/19/17 24/26/24 25/28/25 
# 17 polygons - 6 triangles

#
# object g2
#

v  8.6471 4.2287 -70.6360
v  16.3833 4.2287 -52.5251
v  35.9993 4.2287 -36.6034
v  35.9993 4.2287 -63.2214
v  50.9330 4.2287 -39.3159
v  55.0761 4.2287 -63.7588
v  12.7322 4.2287 -84.5487
v  35.9993 4.2287 -89.8394
v  53.4421 4.2287 -79.4813
v  8.6471 -1.8486 -70.6360
v  16.3833 -1.8486 -52.5251
v  35.9993 -1.8486 -36.6034
v  50.9330 -1.8486 -39.3159
v  55.0761 -1.8486 -63.7588
v  12.7322 -1.8486 -84.5487
v  53.4421 -1.8486 -79.4813
v  35.9993 -1.8486 -89.8394
v  35.6207 -1.8486 -64.7030
# 18 vertices

vn -0.7632 0.6448 0.0410
vn -0.6230 0.6585 0.4221
vn -0.2096 0.6177 0.7580
vn 0.0000 1.0000 -0.0000
vn 0.5816 0.5981 0.5514
vn 0.7319 0.6811 0.0210
vn -0.5600 0.6087 -0.5620
vn 0.1316 0.6256 -0.7689
vn 0.6732 0.6219 -0.3999
vn -0.7633 -0.6447 0.0410
vn -0.6230 -0.6585 0.4221
vn -0.2096 -0.6177 0.7580
vn 0.5816 -0.5981 0.5514
vn 0.7320 -0.6810 0.0209
vn -0.5601 -0.6087 -0.5619
vn 0.6731 -0.6220 -0.4000
vn 0.1317 -0.6257 -0.7689
vn 0.0000 -1.0000 0.0000
# 18 vertex normals

vt 0.4017 0.4687 0.0000
vt 0.5302 0.6313 0.0000
vt 0.5807 0.8784 0.0000
vt 0.3364 0.7319 0.0000
vt 0.4830 0.9849 0.0000
vt 0.2385 0.8841 0.0000
vt 0.2541 0.4254 0.0000
vt 0.0921 0.5855 0.0000
vt 0.1022 0.7843 0.0000
vt 0.0593 0.5128 0.0000
vt 0.0593 0.6037 0.0000
vt 0.0200 0.6037 0.0000
vt 0.0200 0.5128 0.0000
vt 0.0593 0.3770 0.0000
vt 0.0200 0.3770 0.0000
vt 0.0593 0.1387 0.0000
vt 0.0593 0.2597 0.0000
vt 0.0200 0.2597 0.0000
vt 0.0200 0.1387 0.0000
vt 0.0593 0.7165 0.0000
vt 0.0200 0.7165 0.0000
vt 0.0593 0.0200 0.0000
vt 0.0200 0.0200 0.0000
vt 0.0593 0.8427 0.0000
vt 0.0200 0.8427 0.0000
vt 0.0593 0.9604 0.0000
vt 0.0200 0.9604 0.0000
vt 0.9032 0.1079 0.0000
vt 0.8467 0.1139 0.0000
vt 0.8459 0.0325 0.0000
vt 0.8874 0.0168 0.0000
vt 0.9153 0.1897 0.0000
vt 0.8597 0.1642 0.0000
vt 0.9522 0.0594 0.0000
vt 0.9840 0.1146 0.0000
vt 0.9795 0.1617 0.0000
# 36 texture coords

o g2
g g2
usemtl wire_184155229
s 1
f 26/29/26 27/30/27 28/31/28 29/32/29 
f 29/32/29 28/31/28 30/33/30 31/34/31 
f 32/35/32 26/29/26 29/32/29 33/36/33 
f 29/32/29 31/34/31 34/37/34 33/36/33 
s off
f 27/38/27 26/39/26 35/40/35 36/41/36 
f 28/42/28 27/38/27 36/41/36 37/43/37 
f 31/44/31 30/45/30 38/46/38 39/47/39 
f 30/45/30 28/42/28 37/43/37 38/46/38 
f 26/39/26 32/48/32 40/49/40 35/40/35 
f 34/50/34 31/44/31 39/47/39 41/51/41 
f 32/48/32 33/52/33 42/53/42 40/49/40 
f 33/52/33 34/54/34 41/55/41 42/53/42 
f 43/56/43 39/57/39 38/58/38 37/59/37 
f 43/56/43 42/60/42 41/61/41 39/57/39 
f 37/59/37 36/62/36 35/63/35 43/56/43 
f 43/56/43 35/63/35 40/64/40 42/60/42 
# 16 polygons

