# 3ds Max Wavefront OBJ Exporter v0.97b - (c)2007 guruware
# File Created: 12.06.2023 20:22:39

mtllib 4.mtl

#
# object 4
#

v  16318.6875 11410.9727 -5635.3955
v  16838.7305 11529.4570 -3178.3984
v  17365.9883 11529.4570 -3636.2019
v  17109.5742 11410.9727 -5635.3955
v  19988.0977 13938.4580 -5984.0996
v  21365.2539 13938.4580 -5984.0996
v  21365.2539 13938.4580 -6626.9263
v  19988.0977 13938.4580 -6626.9263
v  19605.3945 11529.4570 -2726.8586
v  22517.1250 12789.8555 -3178.3984
v  21968.8438 12789.8555 -3636.2019
v  19605.3945 11529.4570 -3413.5640
v  23057.9043 12789.8555 -5635.3955
v  22235.4824 12794.3301 -5635.3955
v  21967.1699 13935.1826 -5984.0996
v  21861.5605 13935.1826 -6838.0601
v  22179.0977 13931.8154 -8018.8652
v  19988.0977 13931.8154 -8425.6230
v  19988.0977 13935.1826 -7807.0225
v  21766.5313 13935.1826 -7606.4648
v  21435.5645 12798.6836 -5635.3955
v  19605.3945 12798.6836 -5635.3955
v  19605.3945 11529.4570 -4081.4780
v  21435.5645 12789.8555 -4081.4780
v  18580.6953 11410.9727 -6685.4722
v  19605.3945 12798.6836 -7258.3765
v  19605.3945 12794.3311 -8057.9697
v  18511.7988 11410.9727 -7349.8174
v  17755.2129 12087.0361 -3978.8086
v  19249.6777 12052.5459 -4006.9800
v  19228.9512 13162.3740 -5283.4990
v  17780.7773 11944.5840 -5298.5679
v  17878.8203 11410.9727 -5635.3955
v  19605.3945 12798.6836 -6489.6802
v  18248.2637 11410.9727 -6188.1221
v  15898.7324 3963.3799 -5641.6118
v  16484.9980 4021.3086 -2871.7505
v  22517.1250 12789.8555 -8339.4980
v  22773.2559 12789.8555 -7058.7476
v  23175.2012 4637.5264 -7246.2075
v  22886.4551 4637.5273 -8690.0430
v  19603.9570 4021.3086 -2362.7136
v  22886.4551 4637.5273 -2871.7505
v  18440.9629 11410.9727 -8032.8525
v  19605.3945 12789.8555 -8880.0586
v  19603.9570 4637.5273 -9299.4365
v  16850.0137 3963.3799 -8620.1846
v  23496.0957 4637.5273 -5641.6118
v  19508.2988 11558.3291 -2131.9390
v  16741.6367 11558.3291 -2583.4788
v  16464.3066 4050.1807 -2639.7690
v  19583.2656 4050.1807 -2130.7319
v  22371.8301 13931.8154 -7055.1343
v  22586.0215 13931.8154 -5984.0996
v  19988.0977 13938.4580 -7205.3496
v  15774.8340 1766.1172 -5643.4458
v  15497.0059 -3160.9688 -5647.5581
v  16146.6172 -3160.9688 -2578.4119
v  16380.6357 1806.1797 -2781.2803
v  23625.3750 2232.3467 -5643.4458
v  23915.2676 -3160.9688 -5647.5581
v  23559.6992 -3160.9688 -7425.5313
v  23293.7852 2232.3457 -7301.5137
v  19603.5332 1806.1797 -2255.2798
v  19602.5820 -3160.9688 -2014.3733
v  23239.7559 -3160.9688 -2578.4119
v  22995.4180 2232.3467 -2781.2803
v  19603.5332 2232.3467 -9423.1660
v  19602.5820 -3160.9688 -9700.6123
v  16146.6172 -3160.9688 -9025.3740
v  16380.6357 1766.1172 -8793.4648
v  15634.7861 -3160.9688 -6661.5303
v  15889.5547 1766.1172 -6537.5127
v  22995.4180 2232.3467 -8793.4648
v  23239.7559 -3160.9688 -9025.3740
v  19605.3828 1835.0527 -2130.3760
v  16382.4863 1835.0527 -2656.3762
v  16902.5098 3847.4824 -5638.4609
v  17452.6113 3847.4824 -7863.6709
v  18038.7188 3734.7559 -7127.8594
v  17962.9844 3734.7559 -6420.9800
v  17878.8203 3734.7559 -5635.3955
v  16841.4199 1616.0273 -5639.3647
v  16998.6445 1616.0273 -6889.9663
v  21365.2539 13938.4580 -7205.3496
v  17878.8203 1470.0430 -6489.6802
v  17878.8203 1470.0430 -7258.3765
v  17140.1191 1616.0273 -8015.2734
v  17448.9395 12089.7031 -3746.2495
v  17249.5781 11989.5527 -5301.4937
v  19249.6777 12087.0361 -3567.2231
v  17502.0313 3524.6777 -6256.2715
# 92 vertices

vn -0.6252 0.5696 -0.5335
vn -0.6458 0.7634 -0.0117
vn -0.3036 0.9148 0.2664
vn -0.1875 0.4993 -0.8459
vn -0.4751 0.7332 0.4866
vn 0.0022 0.8043 0.5942
vn 0.0033 1.0000 -0.0000
vn -0.5838 0.8119 -0.0000
vn 0.2490 0.8708 0.4239
vn 0.4589 0.6503 0.6054
vn -0.2030 0.9485 0.2432
vn -0.0809 0.9809 0.1771
vn 0.8651 0.4632 0.1923
vn 0.0044 0.8030 0.5959
vn 0.0044 0.8041 0.5944
vn 0.0063 1.0000 -0.0008
vn 0.4696 0.7401 -0.4815
vn -0.4263 0.7423 -0.5170
vn -0.5835 0.8121 -0.0044
vn 0.0040 1.0000 -0.0041
vn 0.0022 0.8018 0.5975
vn -0.3004 0.9028 0.3077
vn 0.1705 0.9384 0.3007
vn -0.3495 0.9084 0.2294
vn -0.9095 0.3008 -0.2870
vn -0.8872 0.4613 -0.0014
vn -0.8796 0.4757 -0.0026
vn -0.9103 0.4030 0.0944
vn -0.0118 0.9983 -0.0571
vn 0.5327 0.7987 0.2799
vn 0.0372 0.9981 -0.0491
vn -0.2514 0.7712 -0.5849
vn -0.4001 0.3512 -0.8465
vn -0.8530 0.5219 -0.0000
vn -0.7874 0.3209 -0.5263
vn -0.7742 0.0442 -0.6314
vn -0.9972 0.0493 0.0564
vn 0.6872 0.2113 -0.6950
vn 0.9624 0.1915 -0.1925
vn 0.9792 0.0528 -0.1958
vn 0.7008 0.0623 -0.7106
vn 0.7267 0.0331 0.6861
vn 0.6803 0.0583 0.7306
vn -0.8881 0.3938 -0.2373
vn -0.4807 0.3800 -0.7902
vn -0.0350 0.0513 -0.9981
vn -0.9305 0.2218 -0.2916
vn 0.9985 0.0537 0.0096
vn 0.4732 0.5945 0.6502
vn -0.6470 0.6015 0.4687
vn -0.7910 0.0246 0.6114
vn 0.6136 0.0063 0.7896
vn 0.5715 0.8126 -0.1143
vn 0.5140 0.7395 0.4346
vn -0.5834 0.8122 -0.0022
vn -0.9060 0.3473 -0.2420
vn -0.9978 0.0562 0.0364
vn -0.6905 0.0620 0.7207
vn -0.8650 -0.1904 0.4642
vn 0.9985 0.0537 0.0095
vn 0.2812 -0.2694 0.9211
vn -0.0040 0.0484 0.9988
vn 0.6852 0.0584 0.7260
vn 0.6813 0.0583 0.7297
vn -0.0083 0.0514 -0.9986
vn -0.0047 0.0514 -0.9987
vn -0.6986 0.0667 -0.7124
vn -0.7624 0.3623 -0.5362
vn -0.9833 0.0552 -0.1734
vn -0.6358 0.7638 -0.1108
vn 0.7013 0.0623 -0.7101
vn 0.5502 -0.4956 0.6721
vn -0.6432 -0.4963 0.5830
vn -0.1275 0.1278 -0.9836
vn -0.7755 0.0659 0.6279
vn -0.9585 0.0515 0.2805
vn -0.9373 0.2164 -0.2731
vn -0.5089 0.6198 -0.5974
vn -0.4858 0.6350 -0.6006
vn 0.0153 0.9750 -0.2217
vn 0.0031 1.0000 -0.0031
vn -0.4067 0.6139 -0.6766
vn -0.6272 0.7135 0.3122
vn -0.3911 0.7544 0.5272
vn -0.5233 0.6879 0.5030
vn -0.5441 0.7479 -0.3804
vn 0.3503 0.7771 0.5229
vn -0.4980 0.4264 -0.7551
# 88 vertex normals

vt 0.9072 0.9054 0.0000
vt 0.9120 0.8826 0.0000
vt 0.9169 0.8868 0.0000
vt 0.9145 0.9054 0.0000
vt 0.2848 0.4216 0.0000
vt 0.2848 0.4088 0.0000
vt 0.2907 0.4088 0.0000
vt 0.2907 0.4216 0.0000
vt 0.9377 0.8784 0.0000
vt 0.9646 0.8826 0.0000
vt 0.9595 0.8868 0.0000
vt 0.9377 0.8848 0.0000
vt 0.9696 0.9054 0.0000
vt 0.9620 0.9054 0.0000
vt 0.2848 0.4032 0.0000
vt 0.2927 0.4042 0.0000
vt 0.3036 0.4013 0.0000
vt 0.3074 0.4216 0.0000
vt 0.3016 0.4216 0.0000
vt 0.2998 0.4051 0.0000
vt 0.9546 0.9054 0.0000
vt 0.9377 0.9054 0.0000
vt 0.9377 0.8910 0.0000
vt 0.9546 0.8910 0.0000
vt 0.0876 0.0404 0.0000
vt 0.0748 0.0351 0.0000
vt 0.0748 0.0277 0.0000
vt 0.0876 0.0343 0.0000
vt 0.9932 0.3774 0.0000
vt 0.9950 0.3901 0.0000
vt 0.9807 0.3941 0.0000
vt 0.9820 0.3774 0.0000
vt 0.9973 0.1769 0.0000
vt 0.9933 0.1970 0.0000
vt 0.9856 0.1955 0.0000
vt 0.9915 0.1784 0.0000
vt 0.5301 0.6232 0.0000
vt 0.5312 0.6004 0.0000
vt 0.6002 0.6004 0.0000
vt 0.5996 0.6260 0.0000
vt 0.5158 0.6097 0.0000
vt 0.5158 0.6216 0.0000
vt 0.4403 0.6198 0.0000
vt 0.4403 0.6064 0.0000
vt 0.9025 0.4717 0.0000
vt 0.8755 0.4600 0.0000
vt 0.8755 0.3905 0.0000
vt 0.9059 0.3962 0.0000
vt 0.8108 0.0238 0.0000
vt 0.8216 0.0111 0.0000
vt 0.8216 0.0866 0.0000
vt 0.7961 0.0928 0.0000
vt 0.5158 0.6347 0.0000
vt 0.5158 0.6575 0.0000
vt 0.4403 0.6603 0.0000
vt 0.4403 0.6347 0.0000
vt 0.8486 0.0111 0.0000
vt 0.8520 0.0866 0.0000
vt 0.8087 0.7669 0.0000
vt 0.7831 0.7669 0.0000
vt 0.7805 0.6974 0.0000
vt 0.8094 0.6974 0.0000
vt 0.5264 0.6216 0.0000
vt 0.5264 0.6315 0.0000
vt 0.8252 0.0005 0.0000
vt 0.8455 0.0005 0.0000
vt 0.0749 0.0201 0.0000
vt 0.0642 0.0300 0.0000
vt 0.0643 0.0243 0.0000
vt 0.0748 0.0422 0.0000
vt 0.0642 0.0410 0.0000
vt 0.0642 0.0356 0.0000
vt 0.0055 0.2726 0.0000
vt 0.0055 0.2557 0.0000
vt 0.0165 0.2563 0.0000
vt 0.0165 0.2691 0.0000
vt 0.0054 0.2483 0.0000
vt 0.0165 0.2508 0.0000
vt 0.6205 0.6004 0.0000
vt 0.6661 0.6003 0.0000
vt 0.6661 0.6287 0.0000
vt 0.6201 0.6269 0.0000
vt 0.4180 0.6347 0.0000
vt 0.3681 0.6346 0.0000
vt 0.3681 0.6182 0.0000
vt 0.4180 0.6193 0.0000
vt 0.8755 0.3700 0.0000
vt 0.8755 0.3240 0.0000
vt 0.9092 0.3240 0.0000
vt 0.9069 0.3739 0.0000
vt 0.8216 0.1089 0.0000
vt 0.8216 0.1588 0.0000
vt 0.7896 0.1588 0.0000
vt 0.7918 0.1132 0.0000
vt 0.6205 0.5712 0.0000
vt 0.6661 0.5690 0.0000
vt 0.6661 0.5909 0.0000
vt 0.6205 0.5921 0.0000
vt 0.4180 0.6612 0.0000
vt 0.3681 0.6630 0.0000
vt 0.8530 0.1089 0.0000
vt 0.8553 0.1588 0.0000
vt 0.8457 0.3700 0.0000
vt 0.8435 0.3240 0.0000
vt 0.9111 0.8771 0.0000
vt 0.9368 0.8729 0.0000
vt 0.5994 0.6282 0.0000
vt 0.5298 0.6287 0.0000
vt 0.0261 0.3338 0.0000
vt 0.0213 0.3636 0.0000
vt 0.0201 0.3636 0.0000
vt 0.0250 0.3338 0.0000
vt 0.2819 0.1861 0.0000
vt 0.2613 0.1864 0.0000
vt 0.2611 0.1843 0.0000
vt 0.2816 0.1850 0.0000
vt 0.0104 0.1392 0.0000
vt 0.0178 0.1392 0.0000
vt 0.0158 0.2093 0.0000
vt 0.0065 0.2082 0.0000
vt 0.1577 0.0295 0.0000
vt 0.1587 0.0363 0.0000
vt 0.0876 0.0502 0.0000
vt 0.0876 0.0450 0.0000
vt 0.1587 0.0429 0.0000
vt 0.1587 0.0502 0.0000
vt 0.1457 0.4468 0.0000
vt 0.1359 0.4449 0.0000
vt 0.1368 0.4333 0.0000
vt 0.1463 0.4385 0.0000
vt 0.2961 0.4088 0.0000
vt 0.2961 0.4216 0.0000
vt 0.2947 0.3995 0.0000
vt 0.5264 0.6127 0.0000
vt 0.0748 0.0502 0.0000
vt 0.0642 0.0469 0.0000
vt 0.3681 0.6033 0.0000
vt 0.4180 0.6055 0.0000
vt 0.1279 0.4353 0.0000
vt 0.1293 0.4283 0.0000
vt 0.1375 0.4228 0.0000
vt 0.9948 0.3748 0.0000
vt 0.9812 0.3730 0.0000
vt 0.2848 0.3975 0.0000
vt 0.0876 0.0280 0.0000
vt 0.9987 0.3902 0.0000
vt 0.0054 0.2407 0.0000
vt 0.0165 0.2450 0.0000
vt 0.0249 0.1392 0.0000
vt 0.0249 0.2103 0.0000
vt 0.1566 0.0225 0.0000
vt 0.0713 0.1818 0.0000
vt 0.0712 0.1907 0.0000
vt 0.0642 0.1918 0.0000
vt 0.0651 0.1873 0.0000
vt 0.1459 0.4171 0.0000
vt 0.1377 0.3963 0.0000
vt 0.1387 0.3877 0.0000
vt 0.1570 0.3933 0.0000
vt 0.1586 0.3972 0.0000
vt 0.9856 0.1426 0.0000
vt 0.9968 0.1432 0.0000
vt 0.9966 0.1637 0.0000
vt 0.9891 0.1612 0.0000
vt 0.7798 0.6769 0.0000
vt 0.8096 0.6769 0.0000
vt 0.6199 0.6280 0.0000
vt 0.1917 0.1874 0.0000
vt 0.1916 0.1818 0.0000
vt 0.0153 0.2300 0.0000
vt 0.0054 0.2286 0.0000
vt 0.1783 0.0281 0.0000
vt 0.1797 0.0351 0.0000
vt 0.1797 0.0422 0.0000
vt 0.1769 0.0209 0.0000
vt 0.0191 0.1339 0.0000
vt 0.0240 0.1343 0.0000
vt 0.1392 0.2799 0.0000
vt 0.1381 0.2985 0.0000
vt 0.1328 0.2976 0.0000
vt 0.1338 0.2831 0.0000
vt 0.1724 0.2750 0.0000
vt 0.1724 0.2958 0.0000
vt 0.1672 0.2924 0.0000
vt 0.1671 0.2756 0.0000
vt 0.2456 0.4105 0.0000
vt 0.2498 0.4060 0.0000
vt 0.2536 0.4106 0.0000
vt 0.2510 0.4137 0.0000
vt 0.2667 0.4024 0.0000
vt 0.2680 0.4080 0.0000
vt 0.0409 0.1264 0.0000
vt 0.0374 0.1230 0.0000
# 193 texture coords

o 4
g 4
usemtl wire_028028177
s 1
f 1/1/1 2/2/2 3/3/3 4/4/4 
f 5/5/5 6/6/6 7/7/7 8/8/8 
f 9/9/9 10/10/10 11/11/11 12/12/12 
f 10/10/10 13/13/13 14/14/14 11/11/11 
f 6/6/6 15/15/15 16/16/16 7/7/7 
f 17/17/17 18/18/18 19/19/19 20/20/20 
f 21/21/21 22/22/22 23/23/23 24/24/24 
f 25/25/25 26/26/26 27/27/27 28/28/28 
f 29/29/29 30/30/30 31/31/31 32/32/32 
f 33/33/33 22/34/22 34/35/34 35/36/35 
f 2/2/2 9/9/9 12/12/12 3/3/3 
s off
f 2/37/2 1/38/1 36/39/36 37/40/37 
f 38/41/38 39/42/39 40/43/40 41/44/41 
f 10/45/10 9/46/9 42/47/42 43/48/43 
f 44/49/44 45/50/45 46/51/46 47/52/47 
f 13/53/13 10/54/10 43/55/43 48/56/48 
f 45/50/45 38/57/38 41/58/41 46/51/46 
f 49/59/49 50/60/50 51/61/51 52/62/52 
f 13/53/13 39/42/39 53/63/53 54/64/54 
f 38/57/38 45/50/45 18/65/18 17/66/17 
f 45/67/45 27/27/27 19/68/19 18/69/18 
f 26/26/26 34/70/34 8/71/8 55/72/55 
f 22/73/22 21/74/21 6/75/6 5/76/5 
f 21/74/21 14/77/14 15/78/15 6/75/6 
f 56/79/56 57/80/57 58/81/58 59/82/59 
f 60/83/48 61/84/60 62/85/40 63/86/40 
f 64/87/61 65/88/62 66/89/63 67/90/64 
f 68/91/65 69/92/66 70/93/67 71/94/68 
f 71/95/68 70/96/67 72/97/69 73/98/70 
f 67/99/64 66/100/63 61/84/60 60/83/48 
f 74/101/41 75/102/71 69/92/66 68/91/65 
f 59/103/59 58/104/58 65/88/62 64/87/61 
f 9/9/9 2/2/2 50/105/50 49/106/49 
f 2/37/2 37/40/37 51/107/51 50/108/50 
f 59/109/59 64/110/61 76/111/72 77/112/73 
f 64/113/61 42/114/42 52/115/52 76/116/72 
f 1/117/1 4/118/4 78/119/74 36/120/36 
f 25/25/25 28/28/28 79/121/75 80/122/76 
f 33/123/33 35/124/35 81/125/77 82/126/78 
f 56/127/56 83/128/79 84/129/80 73/130/70 
s 1
f 7/7/7 85/131/81 55/132/55 8/8/8 
f 53/133/53 17/17/17 20/20/20 16/16/16 
f 34/70/34 26/26/26 25/25/25 35/124/35 
s off
f 39/42/39 13/53/13 48/56/48 40/43/40 
f 39/42/39 38/41/38 17/134/17 53/63/53 
f 34/70/34 22/135/22 5/136/5 8/71/8 
f 62/85/40 75/137/71 74/138/41 63/86/40 
f 72/97/69 57/80/57 56/79/56 73/98/70 
f 35/124/35 25/25/25 80/122/76 81/125/77 
f 86/139/82 87/140/83 88/141/84 84/129/80 
s 1
f 89/142/85 29/29/29 32/32/32 90/143/86 
f 11/11/11 24/24/24 23/23/23 12/12/12 
f 14/14/14 21/21/21 24/24/24 11/11/11 
f 15/15/15 54/144/54 53/133/53 16/16/16 
f 19/19/19 55/132/55 85/131/81 20/20/20 
f 27/27/27 45/67/45 44/145/44 28/28/28 
f 91/146/87 30/30/30 29/29/29 89/142/85 
s off
f 27/27/27 26/26/26 55/72/55 19/68/19 
f 14/77/14 13/147/13 54/148/54 15/78/15 
f 4/118/4 33/149/33 82/150/78 78/119/74 
f 28/28/28 44/145/44 47/151/47 79/121/75 
f 78/152/74 82/153/78 81/154/77 92/155/88 
s 1
f 20/20/20 85/131/81 7/7/7 16/16/16 
s off
f 88/141/84 71/156/68 73/130/70 84/129/80 
f 86/157/82 84/158/80 92/159/88 81/160/77 
f 84/161/80 83/162/79 78/163/74 92/164/88 
f 36/39/36 56/79/56 59/82/59 37/40/37 
f 40/43/40 63/86/40 74/138/41 41/44/41 
f 42/47/42 64/87/61 67/90/64 43/48/43 
f 46/51/46 68/91/65 71/94/68 47/52/47 
f 43/55/43 67/99/64 60/83/48 48/56/48 
f 41/58/41 74/101/41 68/91/65 46/51/46 
f 51/61/51 77/165/73 76/166/72 52/62/52 
f 37/40/37 59/82/59 77/167/73 51/107/51 
f 42/114/42 9/168/9 49/169/49 52/115/52 
f 78/119/74 83/170/79 56/171/56 36/120/36 
f 79/121/75 88/172/84 87/173/83 80/122/76 
f 48/56/48 60/83/48 63/86/40 40/43/40 
f 80/122/76 87/173/83 86/174/82 81/125/77 
f 47/151/47 71/175/68 88/172/84 79/121/75 
f 33/149/33 4/118/4 90/176/86 32/177/32 
f 4/178/4 3/179/3 89/180/85 90/181/86 
f 3/182/3 12/183/12 91/184/87 89/185/85 
f 12/186/12 23/187/23 30/188/30 91/189/87 
f 23/187/23 22/190/22 31/191/31 30/188/30 
f 22/192/22 33/149/33 32/177/32 31/193/31 
# 86 polygons

