# 3ds Max Wavefront OBJ Exporter v0.97b - (c)2007 guruware
# File Created: 12.06.2023 20:17:45

mtllib 6.mtl

#
# object 6
#

v  12812.1650 5538.8096 -11675.7061
v  13011.7178 5538.8096 -10732.9004
v  13410.8232 5538.8096 -11079.4326
v  13410.8232 5538.8096 -11675.7061
v  14073.3486 5910.3833 -11675.7061
v  14775.6260 5910.3833 -11675.7061
v  14775.6260 5910.3833 -12298.4805
v  14073.3486 5910.3833 -12298.4805
v  14073.3486 5538.8096 -10559.6348
v  15190.6445 5538.8096 -10732.9004
v  14775.6260 5538.8096 -11079.4326
v  14073.3486 5538.8096 -11079.4326
v  13011.7178 5910.3833 -12713.3311
v  12812.1650 5910.3833 -11675.7061
v  13410.8232 5910.3833 -11675.7061
v  13410.8232 5910.3833 -12298.4805
v  15190.6445 5910.3833 -10732.9004
v  15398.1543 5910.3833 -11675.7061
v  14775.6260 5910.3833 -11079.4326
v  15190.6445 5910.3833 -12713.3311
v  14073.3486 5910.3833 -12920.7559
v  14073.3486 5910.3833 -11079.4326
v  14073.3486 5538.8096 -11675.7061
v  12757.8809 4220.1245 -11676.5098
v  12965.9932 4220.1245 -10693.2637
v  15190.6445 5538.8096 -12713.3311
v  15398.1543 5538.8096 -11675.7061
v  15454.7949 4220.1245 -11676.5098
v  15238.3848 4220.1245 -12758.6426
v  14073.1621 4220.1245 -10512.5645
v  15238.3848 4220.1245 -10693.2637
v  13011.7178 5538.8096 -12713.3311
v  14073.3486 5538.8096 -12920.7559
v  14073.1621 4220.1245 -12974.9658
v  12965.9932 4220.1245 -12758.6426
v  12633.7588 1204.9058 -11678.3467
v  12861.4434 1204.9058 -10602.6299
v  15584.3076 1204.9058 -11678.3467
v  15347.5449 1204.9058 -12862.2500
v  14072.7373 1204.9058 -10404.9375
v  15347.5449 1204.9058 -10602.6299
v  13868.4336 4234.3491 -13182.3477
v  13971.2705 1219.1304 -13190.7012
v  12759.9766 1219.1304 -12954.0342
v  12761.2646 4234.3491 -12966.0244
v  12532.2920 1219.1304 -11770.1309
v  12553.1523 4234.3491 -11883.8916
v  14072.7373 1204.9058 -13098.9170
v  12496.8672 -2120.5186 -11680.3730
v  12746.1377 -2120.5186 -10502.6729
v  15727.1436 -2120.5186 -11680.3730
v  15467.9346 -2120.5186 -12976.5166
v  14072.2686 -2120.5186 -10286.2383
v  15467.9346 -2120.5186 -10502.6729
v  14072.2686 -2120.5186 -13235.6211
v  12746.1377 -2120.5186 -12976.5166
v  12861.4434 1204.9058 -12862.2500
# 57 vertices

vn -0.9197 0.2955 0.2586
vn -0.5427 0.6164 0.5705
vn 0.0000 1.0000 -0.0000
vn 0.0000 0.7071 0.7071
vn -0.3015 0.9045 0.3015
vn -0.0029 0.6864 0.7272
vn 0.5426 0.2268 0.8088
vn -0.2625 0.6378 0.7241
vn -0.5664 0.6002 -0.5647
vn -0.6345 0.5680 0.5241
vn 0.2687 0.5563 0.7864
vn 0.7480 0.6637 0.0072
vn -0.2079 0.7925 0.5734
vn 0.5617 0.6002 -0.5695
vn -0.0035 0.6674 -0.7447
vn -0.5774 0.5774 0.5774
vn -0.9478 0.2008 0.2477
vn -0.6896 0.0456 0.7227
vn 0.7018 0.0251 -0.7120
vn 0.9997 0.0215 0.0097
vn 0.9990 0.0429 0.0096
vn 0.7013 0.0498 -0.7111
vn -0.0040 0.0357 0.9994
vn 0.6838 0.0466 0.7282
vn -0.7079 0.0246 -0.7058
vn -0.0047 0.0206 -0.9998
vn 0.2371 0.2040 -0.9498
vn -0.3303 0.8844 -0.3296
vn -0.9613 -0.1324 0.2414
vn 0.2299 0.6401 -0.7331
vn 0.2079 -0.5652 -0.7983
vn -0.5825 -0.5708 -0.5787
vn -0.5588 0.6132 -0.5583
vn -0.7899 -0.5589 0.2523
vn -0.7318 0.6433 0.2252
vn 0.2079 -0.1142 -0.9715
vn -0.9991 0.0411 0.0092
vn -0.6907 0.0456 0.7217
vn 0.9990 0.0429 0.0095
vn 0.7017 0.0498 -0.7107
vn 0.6853 0.0467 0.7268
vn -0.0047 0.0411 -0.9991
vn -0.7073 0.0488 -0.7052
vn -0.4204 -0.8024 -0.4237
# 44 vertex normals

vt 0.8141 0.7479 0.0000
vt 0.8189 0.7252 0.0000
vt 0.8285 0.7335 0.0000
vt 0.8285 0.7479 0.0000
vt 0.9435 0.6346 0.0000
vt 0.9470 0.6180 0.0000
vt 0.9617 0.6212 0.0000
vt 0.9582 0.6377 0.0000
vt 0.8445 0.7210 0.0000
vt 0.8715 0.7252 0.0000
vt 0.8615 0.7335 0.0000
vt 0.8445 0.7335 0.0000
vt 0.9626 0.6649 0.0000
vt 0.9371 0.6644 0.0000
vt 0.9401 0.6503 0.0000
vt 0.9548 0.6534 0.0000
vt 0.9268 0.6035 0.0000
vt 0.9501 0.6033 0.0000
vt 0.9329 0.6150 0.0000
vt 0.9736 0.6134 0.0000
vt 0.9729 0.6409 0.0000
vt 0.9294 0.6316 0.0000
vt 0.8445 0.7479 0.0000
vt 0.9761 0.5922 0.0000
vt 0.9533 0.5922 0.0000
vt 0.9533 0.5603 0.0000
vt 0.9770 0.5603 0.0000
vt 0.0144 0.7400 0.0000
vt 0.0144 0.7150 0.0000
vt 0.0462 0.7150 0.0000
vt 0.0462 0.7411 0.0000
vt 0.4991 0.3591 0.0000
vt 0.4991 0.3864 0.0000
vt 0.4673 0.3866 0.0000
vt 0.4673 0.3582 0.0000
vt 0.9763 0.3961 0.0000
vt 0.9507 0.3961 0.0000
vt 0.9507 0.3643 0.0000
vt 0.9774 0.3643 0.0000
vt 0.9283 0.5922 0.0000
vt 0.9272 0.5603 0.0000
vt 0.0144 0.6922 0.0000
vt 0.0462 0.6913 0.0000
vt 0.9237 0.3961 0.0000
vt 0.9226 0.3643 0.0000
vt 0.4994 0.4111 0.0000
vt 0.4676 0.4123 0.0000
vt 0.0054 0.7400 0.0000
vt 0.0054 0.7150 0.0000
vt 0.9507 0.4051 0.0000
vt 0.9237 0.4051 0.0000
vt 0.9763 0.4051 0.0000
vt 0.9533 0.6011 0.0000
vt 0.9283 0.6011 0.0000
vt 0.1034 0.9905 0.0000
vt 0.1179 0.9905 0.0000
vt 0.1179 0.9995 0.0000
vt 0.1034 0.9995 0.0000
vt 0.1339 0.9905 0.0000
vt 0.1339 0.9995 0.0000
vt 0.1475 0.9905 0.0000
vt 0.1619 0.9905 0.0000
vt 0.1619 0.9995 0.0000
vt 0.1475 0.9995 0.0000
vt 0.0340 0.0838 0.0000
vt 0.0340 0.1008 0.0000
vt 0.0250 0.1008 0.0000
vt 0.0250 0.0838 0.0000
vt 0.0340 0.1108 0.0000
vt 0.0250 0.1108 0.0000
vt 0.0054 0.6922 0.0000
vt 0.9532 0.4876 0.0000
vt 0.9792 0.4876 0.0000
vt 0.1190 0.7150 0.0000
vt 0.1190 0.7436 0.0000
vt 0.3945 0.3870 0.0000
vt 0.3945 0.3559 0.0000
vt 0.9556 0.3646 0.0000
vt 0.9531 0.2919 0.0000
vt 0.9824 0.2919 0.0000
vt 0.9823 0.3646 0.0000
vt 0.8141 0.6761 0.0000
vt 0.8144 0.6033 0.0000
vt 0.8435 0.6033 0.0000
vt 0.8407 0.6761 0.0000
vt 0.1190 0.6891 0.0000
vt 0.9199 0.2915 0.0000
vt 0.9507 0.2915 0.0000
vt 0.3948 0.4152 0.0000
vt 0.9532 0.4073 0.0000
vt 0.9816 0.4073 0.0000
vt 0.1992 0.7151 0.0000
vt 0.1992 0.7464 0.0000
vt 0.3142 0.3875 0.0000
vt 0.3142 0.3534 0.0000
vt 0.9507 0.2112 0.0000
vt 0.9827 0.2112 0.0000
vt 0.9799 0.2915 0.0000
vt 0.9247 0.4876 0.0000
vt 0.9219 0.4073 0.0000
vt 0.1992 0.6867 0.0000
vt 0.9170 0.2112 0.0000
vt 0.3145 0.4183 0.0000
vt 0.0599 0.1868 0.0000
vt 0.0761 0.1618 0.0000
vt 0.0793 0.1615 0.0000
vt 0.0631 0.1865 0.0000
vt 0.0593 0.1380 0.0000
vt 0.0626 0.1377 0.0000
vt 0.1181 0.0811 0.0000
vt 0.1909 0.0789 0.0000
vt 0.1913 0.0860 0.0000
vt 0.1185 0.0844 0.0000
vt 0.1334 0.4488 0.0000
vt 0.1113 0.4339 0.0000
vt 0.1113 0.4269 0.0000
vt 0.1333 0.4418 0.0000
vt 0.0888 0.4492 0.0000
vt 0.0887 0.4421 0.0000
# 119 texture coords

o 6
g 6
usemtl wire_177028149
s 1
f 1/1/1 2/2/2 3/3/3 4/4/4 
f 5/5/5 6/6/3 7/7/3 8/8/3 
f 9/9/6 10/10/7 11/11/8 12/12/5 
f 13/13/9 14/14/10 15/15/4 16/16/3 
f 17/17/11 18/18/12 6/6/3 19/19/13 
f 6/6/3 18/18/12 20/20/14 7/7/3 
f 20/20/14 21/21/15 8/8/3 7/7/3 
f 6/6/3 5/5/5 22/22/16 19/19/13 
f 16/16/3 8/8/3 21/21/15 13/13/9 
f 3/3/3 12/12/5 23/23/16 4/4/4 
f 15/15/4 5/5/5 8/8/3 16/16/3 
f 2/2/2 9/9/6 12/12/5 3/3/3 
s off
f 2/24/2 1/25/1 24/26/17 25/27/18 
f 26/28/19 27/29/20 28/30/21 29/31/22 
f 10/32/7 9/33/6 30/34/23 31/35/24 
f 32/36/25 33/37/26 34/38/27 35/39/28 
f 1/25/1 32/40/25 35/41/28 24/26/17 
f 27/29/20 10/42/7 31/43/24 28/30/21 
f 33/37/26 26/44/19 29/45/22 34/38/27 
f 9/33/6 2/46/2 25/47/18 30/34/23 
f 27/29/20 26/28/19 20/48/14 18/49/12 
f 26/44/19 33/37/26 21/50/15 20/51/14 
f 33/37/26 32/36/25 13/52/9 21/50/15 
f 32/40/25 1/25/1 14/53/10 13/54/9 
f 1/55/1 4/56/4 15/57/4 14/58/10 
f 4/56/4 23/59/16 5/60/5 15/57/4 
f 23/61/16 12/62/5 22/63/16 5/64/5 
f 12/65/5 11/66/8 19/67/13 22/68/16 
f 11/66/8 10/69/7 17/70/11 19/67/13 
f 10/42/7 27/29/20 18/49/12 17/71/11 
f 24/26/17 36/72/29 37/73/18 25/27/18 
f 28/30/21 38/74/21 39/75/22 29/31/22 
f 30/34/23 40/76/23 41/77/24 31/35/24 
f 42/78/30 43/79/31 44/80/32 45/81/33 
f 45/82/33 44/83/32 46/84/34 47/85/35 
f 31/43/24 41/86/24 38/74/21 28/30/21 
f 29/45/22 39/87/22 48/88/36 34/38/27 
f 25/47/18 37/89/18 40/76/23 30/34/23 
f 36/72/29 49/90/37 50/91/38 37/73/18 
f 38/74/21 51/92/39 52/93/40 39/75/22 
f 40/76/23 53/94/23 54/95/41 41/77/24 
f 48/88/36 55/96/42 56/97/43 57/98/44 
f 57/99/44 56/100/43 49/90/37 36/72/29 
f 41/86/24 54/101/41 51/92/39 38/74/21 
f 39/87/22 52/102/40 55/96/42 48/88/36 
f 37/89/18 50/103/38 53/94/23 40/76/23 
f 34/38/27 48/88/36 43/79/31 42/78/30 
f 48/104/36 57/105/44 44/106/32 43/107/31 
f 57/105/44 36/108/29 46/109/34 44/106/32 
f 36/110/29 24/111/17 47/112/35 46/113/34 
f 24/114/17 35/115/28 45/116/33 47/117/35 
f 35/115/28 34/118/27 42/119/30 45/116/33 
# 52 polygons

