# 3ds Max Wavefront OBJ Exporter v0.97b - (c)2007 guruware
# File Created: 12.06.2023 01:07:54

mtllib land4.mtl

#
# object land4
#

v  11.7592 0.0000 -154.1392
v  12.7873 0.0000 -163.4577
v  12.7873 -5.9706 -163.4577
v  11.7592 -5.9706 -154.1392
v  35.2978 0.0000 -173.8934
v  42.0099 0.0000 -164.6600
v  42.0099 -5.9706 -164.6600
v  35.2978 -5.9706 -173.8934
v  11.4429 0.0000 -172.3591
v  24.7989 0.0000 -177.4665
v  24.7989 -5.9706 -177.4665
v  11.4429 -5.9706 -172.3591
v  30.1497 0.0000 -150.7800
v  25.1342 0.0000 -144.6807
v  25.1342 -5.9706 -144.6807
v  30.1497 -5.9706 -150.7800
v  40.6535 0.0000 -156.6487
v  40.6535 -5.9706 -156.6487
v  14.0619 0.0000 -146.8329
v  14.0619 -5.9706 -146.8329
v  15.6217 -13.8716 -162.7585
v  14.8359 -13.8716 -155.6369
v  37.9547 -13.8716 -163.6773
v  32.8251 -13.8716 -170.7339
v  24.8014 -13.8716 -173.4646
v  14.5942 -13.8716 -169.5612
v  25.0576 -13.8716 -148.4083
v  28.8907 -13.8716 -153.0696
v  36.9181 -13.8716 -157.5547
v  16.5957 -13.8716 -150.0531
v  24.8095 -23.7003 -160.4918
# 31 vertices

vn -0.9952 0.0000 0.0976
vn -0.9998 -0.0000 0.0200
vn -0.9847 -0.1726 0.0235
vn -0.9767 -0.1881 0.1036
vn 0.5933 0.0000 -0.8050
vn 0.9736 0.0000 -0.2284
vn 0.9479 -0.2277 -0.2227
vn 0.5791 -0.2232 -0.7841
vn -0.8639 -0.0000 -0.5037
vn -0.0186 -0.0000 -0.9998
vn -0.0175 -0.2216 -0.9750
vn -0.8365 -0.2200 -0.5018
vn 0.6412 0.0000 0.7674
vn 0.3384 0.0000 0.9410
vn 0.3164 -0.1980 0.9277
vn 0.6359 -0.1590 0.7552
vn 0.8171 0.0000 0.5765
vn 0.8097 -0.2022 0.5508
vn -0.6659 0.0000 0.7461
vn -0.6471 -0.2206 0.7298
vn -0.8502 -0.5260 0.0201
vn -0.8294 -0.5527 0.0812
vn 0.7575 -0.6283 -0.1774
vn 0.4647 -0.6209 -0.6313
vn -0.0150 -0.6177 -0.7863
vn -0.6947 -0.6085 -0.3835
vn 0.2925 -0.5657 0.7710
vn 0.5598 -0.4957 0.6640
vn 0.6619 -0.5747 0.4813
vn -0.5285 -0.6136 0.5867
vn -0.0113 -0.9990 0.0431
# 31 vertex normals

vt 0.6595 0.9733 0.0000
vt 0.4871 0.9826 0.0000
vt 0.4926 0.8789 0.0000
vt 0.6370 0.8747 0.0000
vt 0.8332 0.1797 0.0000
vt 0.9451 0.3219 0.0000
vt 0.8659 0.3628 0.0000
vt 0.7717 0.2442 0.0000
vt 0.3250 0.9571 0.0000
vt 0.1026 0.8199 0.0000
vt 0.1666 0.7248 0.0000
vt 0.3564 0.8616 0.0000
vt 0.9644 0.6541 0.0000
vt 0.9168 0.7818 0.0000
vt 0.8363 0.7382 0.0000
vt 0.8708 0.6304 0.0000
vt 0.9848 0.4527 0.0000
vt 0.8930 0.4643 0.0000
vt 0.6934 0.0705 0.0000
vt 0.6346 0.1458 0.0000
vt 0.7900 0.9213 0.0000
vt 0.7375 0.8429 0.0000
vt 0.5099 0.7493 0.0000
vt 0.6076 0.7603 0.0000
vt 0.7670 0.4134 0.0000
vt 0.6904 0.3334 0.0000
vt 0.2947 0.6235 0.0000
vt 0.4116 0.7489 0.0000
vt 0.7485 0.6739 0.0000
vt 0.7561 0.5979 0.0000
vt 0.7866 0.4880 0.0000
vt 0.5783 0.2792 0.0000
vt 0.6809 0.7501 0.0000
vt 0.5664 0.5422 0.0000
# 34 texture coords

o land4
g land4
usemtl wire_027177148
s off
f 1/1/1 2/2/2 3/3/3 4/4/4 
f 5/5/5 6/6/6 7/7/7 8/8/8 
f 9/9/9 10/10/10 11/11/11 12/12/12 
f 13/13/13 14/14/14 15/15/15 16/16/16 
f 2/2/2 9/9/9 12/12/12 3/3/3 
f 17/17/17 13/13/13 16/16/16 18/18/18 
f 10/19/10 5/5/5 8/8/8 11/20/11 
f 14/14/14 19/21/19 20/22/20 15/15/15 
f 19/21/19 1/1/1 4/4/4 20/22/20 
f 6/6/6 17/17/17 18/18/18 7/7/7 
f 4/4/4 3/3/3 21/23/21 22/24/22 
f 8/8/8 7/7/7 23/25/23 24/26/24 
f 12/12/12 11/11/11 25/27/25 26/28/26 
f 16/16/16 15/15/15 27/29/27 28/30/28 
f 3/3/3 12/12/12 26/28/26 21/23/21 
f 18/18/18 16/16/16 28/30/28 29/31/29 
f 11/20/11 8/8/8 24/26/24 25/32/25 
f 15/15/15 20/22/20 30/33/30 27/29/27 
f 20/22/20 4/4/4 22/24/22 30/33/30 
f 7/7/7 18/18/18 29/31/29 23/25/23 
f 22/24/22 21/23/21 31/34/31 
f 24/26/24 23/25/23 31/34/31 
f 26/28/26 25/27/25 31/34/31 
f 28/30/28 27/29/27 31/34/31 
f 21/23/21 26/28/26 31/34/31 
f 29/31/29 28/30/28 31/34/31 
f 25/32/25 24/26/24 31/34/31 
f 27/29/27 30/33/30 31/34/31 
f 30/33/30 22/24/22 31/34/31 
f 23/25/23 29/31/29 31/34/31 
# 20 polygons - 10 triangles

#
# object g4
#

v  10.8681 1.4769 -163.6179
v  9.7182 1.4769 -153.1949
v  16.2688 2.5680 -155.7486
v  16.7208 2.5680 -163.6179
v  23.5196 2.5680 -164.1711
v  35.6931 2.5680 -164.9626
v  29.0976 2.5680 -167.0100
v  24.3032 2.5680 -171.6259
v  24.6782 1.4769 -142.6155
v  30.2882 1.4769 -149.4377
v  26.7620 2.5680 -151.8786
v  24.6782 2.5680 -150.2764
v  9.3644 1.4769 -173.5741
v  14.6049 2.5680 -168.4668
v  42.0368 1.4769 -156.0019
v  35.0917 2.5680 -157.4861
v  43.5539 1.4769 -164.9626
v  36.0464 1.4769 -175.2903
v  24.3032 1.4769 -179.2868
v  23.5623 2.5680 -157.6879
v  17.5343 2.5680 -150.1300
v  12.2938 1.4769 -145.0227
v  10.8681 -4.8981 -163.6179
v  9.7182 -4.8981 -153.1949
v  43.5539 -4.8981 -164.9626
v  36.0464 -4.8981 -175.2903
v  24.3032 -4.8981 -179.2868
v  9.3644 -4.8981 -173.5741
v  24.6782 -4.8981 -142.6155
v  30.2882 -4.8981 -149.4377
v  42.0368 -4.8981 -156.0019
v  12.2938 -4.8981 -145.0227
v  24.3557 -4.8981 -157.9094
v  22.3415 -4.8981 -149.1115
v  16.8895 -4.8981 -150.1712
v  15.7502 -4.8981 -153.7862
v  16.8481 -4.8981 -163.7375
v  15.9416 -4.8981 -169.7396
v  24.4206 -4.8981 -172.9821
v  32.3551 -4.8981 -170.2817
v  37.2899 -4.8981 -163.4931
v  36.6635 -4.8981 -159.7934
v  26.4182 -4.8981 -154.0692
v  24.6983 -4.8981 -166.3843
# 44 vertices

vn -0.7488 0.6626 0.0152
vn -0.7905 0.6071 0.0805
vn -0.0920 0.9957 0.0049
vn -0.0820 0.9966 0.0129
vn 0.0000 1.0000 -0.0000
vn 0.0992 0.9766 -0.1909
vn 0.5251 -0.0468 -0.8497
vn 0.0380 0.9944 -0.0990
vn 0.2737 0.5619 0.7806
vn 0.4868 0.6414 0.5929
vn 0.5841 -0.1345 0.8004
vn 0.0408 0.9952 0.0886
vn -0.7221 0.5442 -0.4271
vn -0.1746 0.9845 0.0129
vn 0.6761 0.5693 0.4677
vn 0.0891 0.9935 0.0711
vn 0.7918 0.5830 -0.1821
vn 0.4703 0.6108 -0.6370
vn -0.0148 0.5904 -0.8070
vn -0.0582 0.9934 0.0988
vn -0.5520 0.5614 0.6165
vn -0.6752 -0.7375 0.0135
vn -0.7446 -0.6635 0.0730
vn 0.7566 -0.6294 -0.1775
vn 0.4534 -0.6450 -0.6152
vn -0.0143 -0.6380 -0.7699
vn -0.6978 -0.5895 -0.4068
vn 0.2687 -0.6080 0.7471
vn 0.4231 -0.7513 0.5064
vn 0.6401 -0.6216 0.4516
vn -0.5286 -0.6081 0.5922
vn 0.0000 -1.0000 -0.0000
vn 0.0000 -1.0000 0.0000
vn -0.0000 -1.0000 -0.0000
vn -0.0000 -1.0000 0.0000
vn -0.6076 -0.3194 -0.7272
# 36 vertex normals

vt 0.3057 0.0646 0.0000
vt 0.4431 0.0495 0.0000
vt 0.4095 0.1358 0.0000
vt 0.3057 0.1418 0.0000
vt 0.2984 0.2315 0.0000
vt 0.2880 0.3920 0.0000
vt 0.2610 0.3050 0.0000
vt 0.2001 0.2418 0.0000
vt 0.5827 0.2467 0.0000
vt 0.4927 0.3207 0.0000
vt 0.4605 0.2742 0.0000
vt 0.4816 0.2467 0.0000
vt 0.1744 0.0448 0.0000
vt 0.2418 0.1139 0.0000
vt 0.4061 0.4756 0.0000
vt 0.3866 0.3841 0.0000
vt 0.2880 0.4956 0.0000
vt 0.1518 0.3966 0.0000
vt 0.0991 0.2418 0.0000
vt 0.3839 0.2320 0.0000
vt 0.4836 0.1525 0.0000
vt 0.5509 0.0834 0.0000
vt 0.0761 0.8073 0.0000
vt 0.0761 0.8954 0.0000
vt 0.0200 0.8954 0.0000
vt 0.0200 0.8073 0.0000
vt 0.0761 0.2586 0.0000
vt 0.0761 0.3658 0.0000
vt 0.0200 0.3658 0.0000
vt 0.0200 0.2586 0.0000
vt 0.0761 0.0200 0.0000
vt 0.0761 0.1544 0.0000
vt 0.0200 0.1544 0.0000
vt 0.0200 0.0200 0.0000
vt 0.0761 0.5552 0.0000
vt 0.0761 0.6294 0.0000
vt 0.0200 0.6294 0.0000
vt 0.0200 0.5552 0.0000
vt 0.0761 0.9800 0.0000
vt 0.0200 0.9800 0.0000
vt 0.0761 0.4421 0.0000
vt 0.0200 0.4421 0.0000
vt 0.0761 0.7354 0.0000
vt 0.0200 0.7354 0.0000
vt 0.9133 0.9039 0.0000
vt 0.9332 0.8730 0.0000
vt 0.9526 0.8847 0.0000
vt 0.9519 0.9001 0.0000
vt 0.9758 0.9062 0.0000
vt 0.9569 0.9445 0.0000
vt 0.9339 0.9366 0.0000
vt 0.9488 0.9847 0.0000
vt 0.9290 0.9608 0.0000
vt 0.8837 0.9857 0.0000
vt 0.8920 0.9614 0.0000
vt 0.8444 0.9541 0.0000
vt 0.8655 0.9401 0.0000
vt 0.8300 0.9041 0.0000
vt 0.8560 0.9072 0.0000
vt 0.8483 0.8720 0.0000
vt 0.8636 0.8940 0.0000
vt 0.9024 0.8632 0.0000
vt 0.9107 0.8863 0.0000
vt 0.9333 0.8449 0.0000
vt 0.9773 0.8714 0.0000
vt 0.9002 0.9358 0.0000
# 66 texture coords

o g4
g g4
usemtl wire_027177148
s 1
f 32/35/32 33/36/33 34/37/34 35/38/35 
f 36/39/36 37/40/37 38/41/38 39/42/39 
f 40/43/40 41/44/41 42/45/42 43/46/43 
f 44/47/44 32/35/32 35/38/35 45/48/45 
f 41/44/41 46/49/46 47/50/47 42/45/42 
f 37/40/37 48/51/48 49/52/49 38/41/38 
f 49/52/49 50/53/50 39/42/39 38/41/38 
f 37/40/37 36/39/36 51/54/36 47/50/47 
f 45/48/45 39/42/39 50/53/50 44/47/44 
f 52/55/51 43/46/43 51/54/36 34/37/34 
f 35/38/35 36/39/36 39/42/39 45/48/45 
f 53/56/52 40/43/40 43/46/43 52/55/51 
f 33/36/33 53/56/52 52/55/51 34/37/34 
f 46/49/46 48/51/48 37/40/37 47/50/47 
f 51/54/36 43/46/43 42/45/42 47/50/47 
f 51/54/36 36/39/36 35/38/35 34/37/34 
s off
f 33/57/33 32/58/32 54/59/53 55/60/54 
f 49/61/49 48/62/48 56/63/55 57/64/56 
f 44/65/44 50/66/50 58/67/57 59/68/58 
f 41/69/41 40/70/40 60/71/59 61/72/60 
f 32/58/32 44/73/44 59/74/58 54/59/53 
f 46/75/46 41/69/41 61/72/60 62/76/61 
f 50/66/50 49/61/49 57/64/56 58/67/57 
f 40/70/40 53/77/52 63/78/62 60/71/59 
f 53/77/52 33/57/33 55/60/54 63/78/62 
f 48/62/48 46/75/46 62/76/61 56/63/55 
f 64/79/63 65/80/64 66/81/63 67/82/65 
f 55/83/54 54/84/53 68/85/63 67/82/65 
f 54/84/53 59/86/58 69/87/63 68/85/63 
f 59/86/58 58/88/57 70/89/63 69/87/63 
f 58/88/57 57/90/56 71/91/65 70/89/63 
f 57/90/56 56/92/55 72/93/66 71/91/65 
f 56/92/55 62/94/61 73/95/66 72/93/66 
f 62/94/61 61/96/60 74/97/67 73/95/66 
f 61/96/60 60/98/59 65/80/64 74/97/67 
f 60/98/59 63/99/62 66/81/63 65/80/64 
f 63/99/62 55/83/54 67/82/65 66/81/63 
f 64/79/63 75/100/63 72/93/66 73/95/66 
f 64/79/63 73/95/66 74/97/67 65/80/64 
f 67/82/65 68/85/63 75/100/63 64/79/63 
f 68/85/63 69/87/63 70/89/63 75/100/63 
f 75/100/63 70/89/63 71/91/65 72/93/66 
# 42 polygons

