# 3ds Max Wavefront OBJ Exporter v0.97b - (c)2007 guruware
# File Created: 12.06.2023 20:15:05

mtllib 5.mtl

#
# object 5
#

v  17102.9336 10801.3369 3558.4282
v  16570.3262 10801.3369 5842.3848
v  16979.0508 10801.3369 5756.1567
v  17613.4922 10801.3369 3483.7051
v  13753.6465 9397.6328 19554.1055
v  18548.8789 9397.6328 17329.6934
v  19985.9063 9397.6328 14764.2617
v  15152.0732 9397.6328 17145.3359
v  21609.3008 9397.6328 11866.1211
v  23335.7422 9397.6328 9159.9082
v  18624.9922 9397.6328 8238.0596
v  16731.8613 9397.6328 14424.1777
v  13428.0674 9397.6328 14668.6582
v  14440.6172 9397.6328 10326.5762
v  14852.1406 2102.9688 8561.8564
v  13428.0674 2102.9688 14668.6582
v  21847.2402 9397.6328 1797.1309
v  26400.7109 9397.6328 4355.5464
v  26400.7109 2102.9688 4355.5464
v  21847.2402 2102.9688 1797.1309
v  19985.9063 2102.9688 14764.2617
v  21609.3008 2102.9688 11866.1211
v  11507.7168 9397.6328 17788.9395
v  11507.7168 2102.9688 17788.9395
v  13753.6465 2102.9688 19554.1055
v  16238.2061 9397.6328 2618.0439
v  17227.5195 9397.6328 2473.2524
v  17227.5195 2102.9688 2473.2524
v  16238.2061 2102.9688 2618.0439
v  18548.8789 2102.9688 17329.6953
v  25081.7930 9397.6328 6422.9600
v  25081.7930 2102.9688 6422.9600
v  11026.7510 9397.6328 17410.9297
v  12154.2949 9397.6328 16123.2891
v  12154.2949 2102.9688 16123.2891
v  11026.7510 2102.9688 17410.9297
v  15464.6680 9397.6328 5935.1802
v  16080.2803 9397.6328 5883.5132
v  16719.6719 9397.6328 3141.6348
v  14010.7861 9397.6328 14625.5371
v  14739.5303 9397.6328 12818.4707
v  14396.8682 9397.6328 13102.4316
v  17953.0645 9397.6328 8267.4082
v  16339.6338 9397.6328 11492.4814
v  17442.4238 9397.6328 3035.8564
v  20817.3984 9397.6328 2541.9097
v  15308.6670 10801.3369 11739.1504
v  15168.0605 10801.3369 11855.6699
v  17418.1895 10801.3369 8290.7715
v  15965.2432 10801.3369 11195.0537
v  19997.6133 10801.3369 3134.7754
v  15865.2344 10801.3369 8866.0049
v  16139.1426 10801.3369 8764.5459
v  20460.6426 9397.6328 4568.7915
v  15424.1025 2102.9688 6109.1343
v  23335.7422 2102.9688 9159.9082
v  15233.8213 9397.6328 9513.3535
v  19584.8184 9397.6328 5005.7065
v  18887.6348 10801.3369 5353.5039
v  13586.2266 9397.6328 10127.3369
v  14610.2764 9397.6328 5735.9404
v  15075.4346 2102.9688 6027.8267
v  14503.4727 2102.9688 8480.5488
v  14440.6172 -1619.0156 10326.5762
v  13428.0674 -1619.0156 14668.6582
v  26400.7109 -1619.0156 4355.5464
v  21847.2402 -1619.0156 1797.1304
v  18548.8789 -1619.0156 17329.6934
v  19985.9063 -1619.0156 14764.2617
v  11026.7510 -1619.0156 17410.9297
v  11507.7168 -1619.0156 17788.9395
v  17227.5195 -1619.0156 2473.2529
v  13753.6465 -1619.0156 19554.1055
v  25081.7930 -1619.0156 6422.9600
v  12154.2949 -1619.0156 16123.2891
v  16238.2061 -1619.0156 2618.0444
v  15464.6680 -1619.0156 5935.1807
v  23335.7422 -1619.0156 9159.9082
v  21609.3008 -1619.0156 11866.1211
v  12683.0391 9397.6328 16303.5566
v  13736.0801 2102.9688 14938.3750
v  12462.3076 2102.9688 16393.0059
# 82 vertices

vn -0.4555 0.7397 -0.4954
vn -0.5694 0.8112 -0.1328
vn 0.0000 1.0000 -0.0000
vn -0.0847 0.8112 -0.5785
vn -0.0920 0.6062 0.7899
vn 0.5200 0.6440 0.5612
vn 0.6169 0.7071 0.3456
vn 0.6011 0.7136 0.3597
vn 0.5961 0.7071 0.3803
vn -0.6279 0.5631 0.5373
vn -0.4278 0.8774 0.2172
vn -0.9197 -0.3817 0.0920
vn -0.9534 0.2839 -0.1023
vn 0.1399 0.6412 -0.7545
vn 0.7940 0.5745 -0.1989
vn 0.9700 0.0000 -0.2431
vn 0.1823 0.0000 -0.9832
vn 0.8725 -0.0000 0.4887
vn 0.8581 0.0000 0.5135
vn -0.4369 0.7071 0.5560
vn -0.6179 0.0000 0.7862
vn -0.1156 0.0000 0.9933
vn -0.5417 0.5996 -0.5891
vn -0.1024 0.7071 -0.6997
vn -0.1448 -0.0000 -0.9895
vn -0.6769 -0.0000 -0.7361
vn 0.6796 -0.0000 0.7336
vn 0.8431 0.0000 0.5378
vn -0.8149 0.5746 0.0758
vn -0.2066 0.6007 -0.7723
vn -0.4819 0.3015 -0.8227
vn -0.9957 0.0000 0.0926
vn -0.2310 0.9019 -0.3650
vn -0.2567 0.9253 -0.2792
vn -0.1900 0.9763 0.1035
vn 0.3731 0.8112 0.4502
vn -0.0422 0.9968 0.0682
vn 0.5229 0.8112 0.2616
vn 0.4124 0.8501 0.3276
vn 0.1208 0.9888 -0.0874
vn -0.2910 0.8330 0.4705
vn 0.4921 0.7778 0.3909
vn 0.5090 0.7781 -0.3681
vn -0.8095 -0.3096 -0.4988
vn -0.7163 0.4925 0.4943
vn -0.4503 0.5521 -0.7018
vn -0.4110 -0.6021 -0.6845
vn -0.6650 -0.6561 0.3567
vn -0.9739 0.0000 -0.2271
vn -0.8897 0.0000 -0.4566
vn 0.6797 -0.0000 0.7335
vn -0.1157 0.0000 0.9933
vn -0.7523 -0.0000 -0.6588
vn -0.9739 -0.0000 -0.2271
vn -0.1491 0.8618 -0.4848
vn -0.8050 0.5920 0.0383
vn -0.0429 0.5734 -0.8182
# 57 vertex normals

vt 0.7455 0.2980 0.0000
vt 0.7503 0.2768 0.0000
vt 0.7534 0.2792 0.0000
vt 0.7494 0.3007 0.0000
vt 0.3060 0.6123 0.0000
vt 0.2779 0.5722 0.0000
vt 0.2782 0.5450 0.0000
vt 0.3060 0.5865 0.0000
vt 0.2786 0.5142 0.0000
vt 0.2773 0.4845 0.0000
vt 0.3194 0.4989 0.0000
vt 0.3059 0.5573 0.0000
vt 0.4993 0.7691 0.0000
vt 0.4591 0.7691 0.0000
vt 0.4427 0.7015 0.0000
vt 0.4993 0.7015 0.0000
vt 0.7239 0.7985 0.0000
vt 0.6818 0.7985 0.0000
vt 0.6818 0.7309 0.0000
vt 0.7239 0.7309 0.0000
vt 0.6720 0.6147 0.0000
vt 0.6720 0.5879 0.0000
vt 0.7395 0.5879 0.0000
vt 0.7395 0.6147 0.0000
vt 0.8119 0.6662 0.0000
vt 0.7854 0.6662 0.0000
vt 0.7854 0.5986 0.0000
vt 0.8119 0.5986 0.0000
vt 0.7759 0.7985 0.0000
vt 0.7667 0.7985 0.0000
vt 0.7667 0.7309 0.0000
vt 0.7759 0.7309 0.0000
vt 0.8679 0.4799 0.0000
vt 0.8190 0.4799 0.0000
vt 0.8190 0.4124 0.0000
vt 0.8679 0.4124 0.0000
vt 0.6720 0.6843 0.0000
vt 0.6720 0.6651 0.0000
vt 0.7395 0.6651 0.0000
vt 0.7395 0.6843 0.0000
vt 0.5247 0.7691 0.0000
vt 0.5128 0.7691 0.0000
vt 0.5128 0.7015 0.0000
vt 0.5247 0.7015 0.0000
vt 0.3645 0.4649 0.0000
vt 0.3554 0.4951 0.0000
vt 0.3507 0.4918 0.0000
vt 0.3582 0.4669 0.0000
vt 0.3313 0.5746 0.0000
vt 0.3268 0.5715 0.0000
vt 0.3293 0.5537 0.0000
vt 0.3307 0.5575 0.0000
vt 0.3246 0.5023 0.0000
vt 0.3226 0.5356 0.0000
vt 0.3233 0.4324 0.0000
vt 0.3573 0.4592 0.0000
vt 0.3529 0.4627 0.0000
vt 0.3281 0.4431 0.0000
vt 0.1965 0.9856 0.0000
vt 0.2226 0.9856 0.0000
vt 0.2212 0.9993 0.0000
vt 0.1995 0.9993 0.0000
vt 0.1720 0.1132 0.0000
vt 0.1762 0.1132 0.0000
vt 0.1866 0.1269 0.0000
vt 0.1849 0.1269 0.0000
vt 0.9986 0.0054 0.0000
vt 0.9986 0.0353 0.0000
vt 0.9856 0.0351 0.0000
vt 0.9856 0.0082 0.0000
vt 0.0438 0.4455 0.0000
vt 0.0122 0.4455 0.0000
vt 0.0131 0.4318 0.0000
vt 0.0354 0.4318 0.0000
vt 0.7567 0.2488 0.0000
vt 0.7586 0.2507 0.0000
vt 0.2760 0.4545 0.0000
vt 0.2750 0.4318 0.0000
vt 0.3216 0.4610 0.0000
vt 0.4184 0.7691 0.0000
vt 0.3877 0.7691 0.0000
vt 0.3877 0.7015 0.0000
vt 0.4200 0.7015 0.0000
vt 0.6720 0.6398 0.0000
vt 0.7395 0.6398 0.0000
vt 0.3432 0.5351 0.0000
vt 0.3406 0.5249 0.0000
vt 0.3266 0.4686 0.0000
vt 0.2571 0.9856 0.0000
vt 0.2500 0.9993 0.0000
vt 0.9986 0.0655 0.0000
vt 0.9986 0.0883 0.0000
vt 0.9856 0.0828 0.0000
vt 0.9856 0.0623 0.0000
vt 0.7014 0.8729 0.0000
vt 0.7420 0.8729 0.0000
vt 0.7393 0.9405 0.0000
vt 0.7166 0.9405 0.0000
vt 0.7631 0.2211 0.0000
vt 0.7638 0.2226 0.0000
vt 0.2913 0.9856 0.0000
vt 0.2784 0.9993 0.0000
vt 0.4591 0.6671 0.0000
vt 0.4993 0.6671 0.0000
vt 0.6818 0.6965 0.0000
vt 0.7239 0.6965 0.0000
vt 0.7395 0.5641 0.0000
vt 0.7740 0.5641 0.0000
vt 0.7740 0.5879 0.0000
vt 0.7798 0.5986 0.0000
vt 0.7798 0.5641 0.0000
vt 0.7854 0.5641 0.0000
vt 0.7667 0.6965 0.0000
vt 0.8190 0.3779 0.0000
vt 0.8679 0.3779 0.0000
vt 0.7740 0.6651 0.0000
vt 0.7740 0.6843 0.0000
vt 0.5128 0.6671 0.0000
vt 0.3877 0.6671 0.0000
vt 0.4184 0.6671 0.0000
vt 0.7740 0.6398 0.0000
vt 0.7740 0.6147 0.0000
vt 0.3631 0.4975 0.0000
vt 0.3510 0.5374 0.0000
vt 0.0574 0.1328 0.0000
vt 0.0570 0.2004 0.0000
vt 0.0538 0.2004 0.0000
vt 0.0495 0.1328 0.0000
vt 0.0526 0.0286 0.0000
vt 0.0299 0.0233 0.0000
vt 0.0307 0.0201 0.0000
vt 0.0534 0.0254 0.0000
vt 0.1279 0.0887 0.0000
vt 0.1955 0.0925 0.0000
vt 0.1955 0.1004 0.0000
vt 0.1279 0.0919 0.0000
vt 0.3347 0.5922 0.0000
vt 0.3378 0.6077 0.0000
vt 0.3322 0.6085 0.0000
vt 0.3297 0.5912 0.0000
vt 0.6720 0.5641 0.0000
vt 0.5594 0.9258 0.0000
vt 0.5396 0.9258 0.0000
vt 0.5435 0.8582 0.0000
vt 0.5614 0.8582 0.0000
vt 0.5247 0.6671 0.0000
vt 0.0446 0.1955 0.0000
vt 0.0446 0.1279 0.0000
vt 0.0475 0.1279 0.0000
vt 0.0500 0.1955 0.0000
vt 0.2946 0.1818 0.0000
vt 0.3125 0.1821 0.0000
vt 0.3125 0.1859 0.0000
vt 0.2946 0.1856 0.0000
vt 0.0399 0.1328 0.0000
vt 0.0399 0.2004 0.0000
vt 0.0348 0.2004 0.0000
vt 0.0362 0.1328 0.0000
vt 0.7676 0.2903 0.0000
vt 0.7678 0.3133 0.0000
vt 0.7798 0.6662 0.0000
vt 0.1954 0.1132 0.0000
vt 0.1945 0.1269 0.0000
vt 0.0054 0.4455 0.0000
vt 0.0084 0.4318 0.0000
vt 0.7673 0.2599 0.0000
vt 0.7670 0.2298 0.0000
vt 0.8119 0.5641 0.0000
vt 0.7759 0.6965 0.0000
# 169 texture coords

o 5
g 5
usemtl wire_224086086
s 1
f 1/1/1 2/2/2 3/3/3 4/4/4 
f 5/5/5 6/6/6 7/7/7 8/8/3 
f 9/9/8 10/10/9 11/11/3 12/12/3 
s off
f 13/13/10 14/14/11 15/15/12 16/16/13 
f 17/17/14 18/18/15 19/19/16 20/20/17 
f 9/21/8 7/22/7 21/23/18 22/24/19 
f 5/25/5 23/26/20 24/27/21 25/28/22 
f 26/29/23 27/30/24 28/31/25 29/32/26 
f 6/33/6 5/34/5 25/35/22 30/36/27 
f 18/37/15 31/38/9 32/39/28 19/40/16 
f 33/41/29 34/42/30 35/43/31 36/44/32 
f 26/45/23 37/46/33 38/47/2 39/48/34 
f 13/49/10 40/50/35 41/51/36 42/52/37 
f 12/12/3 11/11/3 43/53/38 44/54/39 
f 17/55/14 27/56/24 45/57/4 46/58/40 
f 39/59/34 38/60/2 2/61/2 1/62/1 
f 42/63/37 41/64/36 47/65/36 48/66/41 
f 44/67/39 43/68/38 49/69/38 50/70/42 
f 46/71/40 45/72/4 4/73/4 51/74/43 
s 1
f 2/2/2 52/75/2 53/76/3 3/3/3 
f 31/77/9 18/78/15 17/55/14 54/79/3 
s off
f 37/80/33 26/81/23 29/82/26 55/83/44 
f 31/38/9 10/84/9 56/85/28 32/39/28 
f 37/46/33 14/86/11 57/87/2 38/47/2 
f 54/79/3 17/55/14 46/58/40 58/88/38 
f 38/60/2 57/89/2 52/90/2 2/61/2 
f 58/91/38 46/92/40 51/93/43 59/94/38 
s 1
f 10/10/9 31/77/9 54/79/3 11/11/3 
s off
f 60/95/45 61/96/46 62/97/47 63/98/48 
f 11/11/3 54/79/3 58/88/38 43/53/38 
f 43/68/38 58/91/38 59/94/38 49/69/38 
s 1
f 52/75/2 48/99/41 47/100/36 53/76/3 
s off
f 10/84/9 9/21/8 22/24/19 56/85/28 
f 14/86/11 13/49/10 42/52/37 57/87/2 
f 57/89/2 42/101/37 48/102/41 52/90/2 
f 15/15/12 64/103/49 65/104/50 16/16/13 
f 19/19/16 66/105/16 67/106/17 20/20/17 
f 30/107/27 68/108/51 69/109/18 21/23/18 
f 36/110/32 70/111/32 71/112/21 24/27/21 
f 20/20/17 67/106/17 72/113/25 28/31/25 
f 25/35/22 73/114/52 68/115/51 30/36/27 
f 32/39/28 74/116/28 66/117/16 19/40/16 
f 16/16/13 65/104/50 75/118/53 35/43/31 
f 29/82/26 76/119/26 77/120/54 55/83/44 
f 56/85/28 78/121/28 74/116/28 32/39/28 
f 55/83/44 77/120/54 64/103/49 15/15/12 
f 22/24/19 79/122/19 78/121/28 56/85/28 
f 14/86/11 37/46/33 61/123/46 60/124/45 
f 37/125/33 55/126/44 62/127/47 61/128/46 
f 55/129/44 15/130/12 63/131/48 62/132/47 
f 15/133/12 14/134/11 60/135/45 63/136/48 
s 1
f 7/7/7 9/9/8 12/12/3 8/8/3 
f 34/137/30 33/138/29 23/139/20 80/140/55 
s off
f 7/22/7 6/141/6 30/107/27 21/23/18 
f 80/142/55 40/143/35 81/144/56 82/145/57 
f 69/109/18 79/122/19 22/24/19 21/23/18 
f 75/118/53 70/146/32 36/44/32 35/43/31 
f 13/147/10 16/148/13 81/149/56 40/150/35 
f 16/151/13 35/152/31 82/153/57 81/154/56 
f 35/155/31 34/156/30 80/157/55 82/158/57 
s 1
f 3/3/3 59/159/38 51/160/43 4/4/4 
f 80/140/55 8/8/3 12/12/3 40/50/35 
s off
f 23/26/20 33/161/29 36/110/32 24/27/21 
f 27/30/24 17/17/14 20/20/17 28/31/25 
f 40/50/35 12/12/3 44/54/39 41/51/36 
f 27/56/24 26/45/23 39/48/34 45/57/4 
f 41/64/36 44/162/39 50/163/42 47/65/36 
f 45/72/4 39/164/34 1/165/1 4/73/4 
s 1
f 53/76/3 49/166/38 59/159/38 3/3/3 
f 47/100/36 50/167/42 49/166/38 53/76/3 
s off
f 71/112/21 73/168/52 25/28/22 24/27/21 
f 72/113/25 76/169/26 29/32/26 28/31/25 
s 1
f 23/139/20 5/5/5 8/8/3 80/140/55 
# 73 polygons

