# 3ds Max Wavefront OBJ Exporter v0.97b - (c)2007 guruware
# File Created: 30.05.2023 03:34:36

mtllib Ax.mtl

#
# object Ax_01
#

v  -74.9953 -29.5820 5.7231
v  -43.9637 -57.9948 5.7231
v  -43.9637 -7.8484 6.6621
v  -85.8676 7.0544 5.7231
v  20.9615 -57.9948 5.7231
v  20.9615 -16.8906 6.6621
v  -11.7005 -19.7059 6.6621
v  -11.7005 -60.2104 5.7231
v  41.3335 -38.4705 5.7231
v  52.2058 -1.8341 5.7231
v  -43.9637 -7.8484 -6.6621
v  -43.9637 -57.9948 -5.7231
v  -74.9953 -29.5820 -5.7231
v  -85.8676 7.0544 -5.7231
v  -11.7005 -19.7059 -6.6621
v  20.9615 -16.8906 -6.6621
v  20.9615 -57.9948 -5.7231
v  -11.7005 -60.2104 -5.7231
v  52.2058 -1.8341 -5.7231
v  41.3335 -38.4705 -5.7231
v  -104.8080 -35.8486 0.0000
v  -58.3689 -81.6652 -0.0000
v  -85.8676 7.0544 0.0000
v  -117.6364 2.2285 0.0000
v  -10.9672 -95.1327 -0.0000
v  37.1532 -81.5688 -0.0000
v  71.5150 -49.4493 0.0000
v  75.3026 -4.7481 0.0000
v  20.9615 -16.8906 0.0000
v  52.2058 -1.8341 0.0000
v  -43.9637 -7.8484 0.0000
v  -11.7005 46.4716 10.7012
v  -45.2080 46.5202 10.7012
v  -40.3430 9.1405 10.7012
v  -11.7005 7.6006 10.7012
v  15.5401 9.1570 10.7012
v  22.2058 46.5202 10.7012
v  -11.7005 7.6006 -6.6621
v  15.5401 9.1570 -6.6621
v  -40.3430 9.1405 -10.7012
v  -45.2080 46.5202 -10.7012
v  -11.7005 46.4716 -10.7012
v  -11.7005 7.6006 -10.7012
v  22.2058 46.5202 -10.7012
v  15.5401 9.1570 -10.7012
v  -40.3430 9.1405 6.6621
v  -11.7005 7.6006 6.6621
v  15.5401 9.1570 6.6621
v  -45.2080 46.5202 6.6621
v  -11.7005 46.4716 6.6621
v  -11.7005 46.4716 0.0000
v  -45.2080 46.5202 0.0000
v  -40.3430 9.1405 0.0000
v  22.2058 46.5202 6.6621
v  15.5401 9.1570 0.0000
v  22.2058 46.5202 0.0000
v  -11.7005 46.4716 -6.6621
v  -45.2080 46.5202 -6.6621
v  -40.3430 9.1405 -6.6621
v  22.2058 46.5202 -6.6621
# 60 vertices

vn -0.1372 -0.1010 0.9854
vn -0.0675 -0.1779 0.9817
vn -0.2123 0.3226 0.9224
vn -0.0297 0.7186 0.6948
vn 0.0670 -0.1785 0.9817
vn 0.1887 0.2992 0.9354
vn -0.0030 -0.0193 0.9998
vn -0.0002 -0.1383 0.9904
vn 0.1261 -0.0841 0.9884
vn 0.0179 0.7118 0.7022
vn -0.2122 0.3226 -0.9224
vn -0.0675 -0.1779 -0.9817
vn -0.1372 -0.1010 -0.9854
vn -0.0297 0.7186 -0.6948
vn -0.0030 -0.0193 -0.9998
vn 0.1887 0.2992 -0.9354
vn 0.0670 -0.1785 -0.9817
vn -0.0002 -0.1383 -0.9904
vn 0.0179 0.7118 -0.7022
vn 0.1261 -0.0841 -0.9884
vn -0.8692 -0.4944 0.0000
vn -0.5056 -0.8628 -0.0000
vn 0.0953 0.9954 0.0000
vn -0.9398 0.3417 0.0000
vn 0.0019 -1.0000 0.0000
vn 0.5002 -0.8659 -0.0000
vn 0.9070 -0.4210 0.0000
vn 0.8924 0.4513 0.0000
vn 0.4423 0.8969 0.0000
vn -0.1611 0.9869 0.0000
vn -0.4878 0.8730 0.0000
vn 0.0000 0.7067 0.7075
vn -0.6166 0.5422 0.5708
vn -0.5501 -0.5935 0.5876
vn 0.0012 -0.7191 0.6949
vn 0.5355 -0.6036 0.5907
vn 0.6303 0.5286 0.5686
vn 0.0012 -0.6942 -0.7198
vn 0.8846 -0.3372 -0.3221
vn -0.5501 -0.5935 -0.5876
vn -0.6166 0.5422 -0.5708
vn 0.0000 0.7067 -0.7075
vn 0.0012 -0.7191 -0.6949
vn 0.6303 0.5286 -0.5686
vn 0.5355 -0.6036 -0.5907
vn -0.8930 -0.3105 0.3257
vn 0.0012 -0.6941 0.7199
vn 0.8846 -0.3372 0.3221
vn -0.7510 0.6604 0.0000
vn 0.0000 1.0000 0.0000
vn -0.9992 0.0403 0.0000
vn 0.7662 0.6426 0.0000
vn 0.9999 0.0143 0.0000
vn -0.8931 -0.3104 -0.3257
# 54 vertex normals

vt 0.4769 0.1109 0.0000
vt 0.3828 0.1971 0.0000
vt 0.3827 0.0449 0.0000
vt 0.5099 -0.0002 0.0000
vt 0.1858 0.1971 0.0000
vt 0.1859 0.0724 0.0000
vt 0.2849 0.0809 0.0000
vt 0.2849 0.2038 0.0000
vt 0.1240 0.1378 0.0000
vt 0.0910 0.0267 0.0000
vt 0.9500 0.2546 0.0000
vt 0.7934 0.2579 0.0000
vt 0.8800 0.1591 0.0000
vt 0.9936 0.1227 0.0000
vt 0.9152 0.3561 0.0000
vt 0.9261 0.4579 0.0000
vt 0.7978 0.4606 0.0000
vt 0.7887 0.3588 0.0000
vt 0.9751 0.5546 0.0000
vt 0.8601 0.5230 0.0000
vt 0.3729 0.2141 0.0000
vt 0.4742 0.1363 0.0000
vt 0.5652 0.1664 0.0000
vt 0.4126 0.2924 0.0000
vt 0.9664 0.4674 0.0000
vt 0.9273 0.3747 0.0000
vt 0.9901 0.4555 0.0000
vt 0.5191 0.0295 0.0000
vt 0.6163 0.0558 0.0000
vt 0.1760 0.2035 0.0000
vt 0.2747 0.2154 0.0000
vt 0.2666 0.3240 0.0000
vt 0.1228 0.2765 0.0000
vt 0.1154 0.1432 0.0000
vt 0.0205 0.1768 0.0000
vt 0.0839 0.0320 0.0000
vt 0.0095 0.0410 0.0000
vt 0.8152 0.0693 0.0000
vt 0.8495 0.1618 0.0000
vt 0.7732 0.2689 0.0000
vt 0.6913 0.2309 0.0000
vt 0.9270 0.0126 0.0000
vt 0.9578 0.1116 0.0000
vt 0.6642 0.3823 0.0000
vt 0.7756 0.3699 0.0000
vt 0.7916 0.4709 0.0000
vt 0.7186 0.5285 0.0000
vt 0.8562 0.5309 0.0000
vt 0.8250 0.6297 0.0000
vt 0.9719 0.5601 0.0000
vt 0.9648 0.6369 0.0000
vt 0.6308 0.0851 0.0000
vt 0.7485 0.0805 0.0000
vt 0.7485 0.1135 0.0000
vt 0.6308 0.1135 0.0000
vt 0.7737 0.0675 0.0000
vt 0.6227 0.0721 0.0000
vt 0.6227 0.0391 0.0000
vt 0.7737 0.0391 0.0000
vt 0.6227 0.0061 0.0000
vt 0.7737 0.0107 0.0000
vt 0.9231 0.3518 0.0000
vt 0.9696 0.2528 0.0000
vt 0.9599 0.3553 0.0000
vt 0.9968 0.3588 0.0000
vt 0.1315 0.4394 0.0000
vt 0.2462 0.4393 0.0000
vt 0.2295 0.5672 0.0000
vt 0.1315 0.5725 0.0000
vt 0.0382 0.5671 0.0000
vt 0.0154 0.4393 0.0000
vt 0.4591 0.3029 0.0000
vt 0.5902 0.2516 0.0000
vt 0.6585 0.3706 0.0000
vt 0.5029 0.4367 0.0000
vt 0.4549 0.4391 0.0000
vt 0.4716 0.5671 0.0000
vt 0.3569 0.5670 0.0000
vt 0.3568 0.4339 0.0000
vt 0.2409 0.5672 0.0000
vt 0.2636 0.4393 0.0000
vt 0.2999 0.3457 0.0000
vt 0.2902 0.4232 0.0000
vt 0.1357 0.4260 0.0000
vt 0.1760 0.3100 0.0000
vt 0.0012 0.3659 0.0000
vt 0.0626 0.2632 0.0000
vt 0.8068 0.6311 0.0000
vt 0.8068 0.7107 0.0000
vt 0.7834 0.7107 0.0000
vt 0.7834 0.6311 0.0000
vt 0.5825 0.5524 0.0000
vt 0.4756 0.5524 0.0000
vt 0.4756 0.5248 0.0000
vt 0.5825 0.5248 0.0000
vt 0.6945 0.5508 0.0000
vt 0.5869 0.5508 0.0000
vt 0.5869 0.5232 0.0000
vt 0.6945 0.5232 0.0000
vt 0.8068 0.7913 0.0000
vt 0.7834 0.7913 0.0000
vt 0.5550 0.2150 0.0000
vt 0.5550 0.1882 0.0000
vt 0.6283 0.1882 0.0000
vt 0.6283 0.2150 0.0000
vt 0.7606 0.7107 0.0000
vt 0.7606 0.6311 0.0000
vt 0.4756 0.4972 0.0000
vt 0.5825 0.4972 0.0000
vt 0.5869 0.4956 0.0000
vt 0.6945 0.4956 0.0000
vt 0.7606 0.7913 0.0000
vt 0.3150 0.0148 0.0000
vt 0.2831 0.0148 0.0000
vt 0.2831 0.0555 0.0000
vt 0.3150 0.0555 0.0000
vt 0.2526 0.0148 0.0000
vt 0.2526 0.0555 0.0000
vt 0.6945 0.5676 0.0000
vt 0.5869 0.5676 0.0000
vt 0.8209 0.7107 0.0000
vt 0.8209 0.7913 0.0000
vt 0.8209 0.6311 0.0000
vt 0.5825 0.5691 0.0000
vt 0.4756 0.5691 0.0000
vt 0.2396 0.0366 0.0000
vt 0.2392 0.0089 0.0000
vt 0.2040 0.0093 0.0000
vt 0.2043 0.0371 0.0000
vt 0.4756 0.4805 0.0000
vt 0.5825 0.4805 0.0000
vt 0.7466 0.7107 0.0000
vt 0.7466 0.6311 0.0000
vt 0.7466 0.7913 0.0000
vt 0.5869 0.4789 0.0000
vt 0.6945 0.4789 0.0000
vt 0.2399 0.0631 0.0000
vt 0.2047 0.0635 0.0000
vt 0.9427 0.4775 0.0000
vt 0.7485 0.1466 0.0000
vt 0.6308 0.1419 0.0000
vt 0.6333 0.1882 0.0000
vt 0.6811 0.1882 0.0000
vt 0.6811 0.2150 0.0000
vt 0.6333 0.2150 0.0000
vt 0.5550 0.2418 0.0000
vt 0.6283 0.2418 0.0000
vt 0.6333 0.2418 0.0000
vt 0.6811 0.2418 0.0000
vt 0.3162 0.3412 0.0000
vt 0.3257 0.4303 0.0000
# 151 texture coords

o Ax_01
g Ax_01
usemtl wire_177027088
s 1
f 1/1/1 2/2/2 3/3/3 4/4/4 
f 5/5/5 6/6/6 7/7/7 8/8/8 
f 2/2/2 8/8/8 7/7/7 3/3/3 
f 5/5/5 9/9/9 10/10/10 6/6/6 
f 11/11/11 12/12/12 13/13/13 14/14/14 
f 15/15/15 16/16/16 17/17/17 18/18/18 
f 15/15/15 18/18/18 12/12/12 11/11/11 
f 19/19/19 20/20/20 17/17/17 16/16/16 
s 64
f 2/21/2 1/22/1 21/23/21 22/24/22 
s 4
f 23/25/23 24/26/24 4/27/4 
s 64
f 1/22/1 4/28/4 24/29/24 21/23/21 
f 5/30/5 8/31/8 25/32/25 26/33/26 
f 8/31/8 2/21/2 22/24/22 25/32/25 
f 9/34/9 5/30/5 26/33/26 27/35/27 
f 10/36/10 9/34/9 27/35/27 28/37/28 
s 32
f 21/38/21 13/39/13 12/40/12 22/41/22 
f 24/42/24 14/43/14 13/39/13 21/38/21 
f 25/44/25 18/45/18 17/46/17 26/47/26 
f 22/41/22 12/40/12 18/45/18 25/44/25 
f 26/47/26 17/46/17 20/48/20 27/49/27 
f 27/49/27 20/48/20 19/50/19 28/51/28 
s 2
f 19/52/19 16/53/16 29/54/29 30/55/30 
s 16
f 4/56/4 3/57/3 31/58/31 23/59/23 
f 23/59/23 31/58/31 11/60/11 14/61/14 
s 8
f 10/62/10 28/63/28 30/64/30 
f 30/64/30 28/63/28 19/65/19 
s 1
f 32/66/32 33/67/33 34/68/34 35/69/35 
f 36/70/36 37/71/37 32/66/32 35/69/35 
f 38/72/38 39/73/39 16/74/16 15/75/15 
f 40/76/40 41/77/41 42/78/42 43/79/43 
f 42/78/42 44/80/44 45/81/45 43/79/43 
f 46/82/46 3/83/3 7/84/7 47/85/47 
f 6/86/6 48/87/48 47/85/47 7/84/7 
s 2
f 49/88/49 50/89/50 51/90/50 52/91/49 
s 4
f 46/92/46 49/93/49 52/94/49 53/95/51 
f 54/96/52 48/97/48 55/98/53 56/99/52 
s 2
f 50/89/50 54/100/52 56/101/52 51/90/50 
s 8
f 29/102/29 16/103/16 39/104/39 55/105/53 
s 2
f 51/90/50 57/106/50 58/107/49 52/91/49 
s 4
f 52/94/49 58/108/49 59/109/54 53/95/51 
f 55/98/53 39/110/39 60/111/52 56/99/52 
s 2
f 56/101/52 60/112/52 57/106/50 51/90/50 
f 46/113/46 47/114/47 35/115/35 34/116/34 
f 47/114/47 48/117/48 36/118/36 35/115/35 
s 4
f 48/97/48 54/96/52 37/119/37 36/120/36 
s 2
f 54/100/52 50/89/50 32/121/32 37/122/37 
f 50/89/50 49/88/49 33/123/33 32/121/32 
s 4
f 49/93/49 46/92/46 34/124/34 33/125/33 
s 2
f 38/126/38 59/127/54 40/128/40 43/129/43 
s 4
f 59/109/54 58/108/49 41/130/41 40/131/40 
s 2
f 58/107/49 57/106/50 42/132/42 41/133/41 
f 57/106/50 60/112/52 44/134/44 42/132/42 
s 4
f 60/111/52 39/110/39 45/135/45 44/136/44 
s 2
f 39/137/39 38/126/38 43/129/43 45/138/45 
s 4
f 23/25/23 14/139/14 24/26/24 
s 2
f 29/54/29 6/140/6 10/141/10 30/55/30 
s 8
f 59/142/54 11/143/11 31/144/31 53/145/51 
f 6/146/6 29/102/29 55/105/53 48/147/48 
f 46/148/46 53/145/51 31/144/31 3/149/3 
s 1
f 59/150/54 38/72/38 15/75/15 11/151/11 
# 56 polygons - 4 triangles

#
# object Ax_02
#

v  -59.1696 35.8474 9.1579
v  -61.7145 18.7358 9.1579
v  29.3214 18.7921 9.1579
v  29.3717 35.7912 9.1579
v  211.1714 37.2566 -19.5716
v  211.5941 -2.9500 -19.6607
v  194.6203 7.9539 -16.1069
v  194.6340 42.3131 -16.1069
v  -58.4693 40.5609 4.3882
v  29.3858 40.5609 4.3882
v  29.3858 40.5609 -4.3882
v  -58.4693 40.5609 -4.3882
v  211.5940 -7.7198 14.8910
v  194.6184 3.1842 11.3372
v  194.6184 3.1842 -11.3372
v  211.5940 -7.7198 -14.8910
v  64.1267 23.3958 9.1579
v  64.1686 38.9251 9.1579
v  29.3214 18.7921 -9.1579
v  -61.7145 18.7358 -9.1579
v  -59.1696 35.8474 -9.1579
v  29.3717 35.7912 -9.1579
v  64.1814 43.6947 4.3882
v  64.1814 43.6947 -4.3882
v  29.3072 14.0225 4.3882
v  -62.4148 14.0225 4.3882
v  -62.4148 14.0225 -4.3882
v  29.3072 14.0225 -4.3882
v  64.1267 23.3958 -9.1579
v  64.1686 38.9251 -9.1579
v  64.1139 18.6262 4.3882
v  64.1139 18.6262 -4.3882
v  99.3775 29.1734 9.1579
v  99.4085 46.1724 9.1579
v  99.4172 50.9421 4.3882
v  99.4172 50.9421 -4.3882
v  99.3775 29.1734 -9.1579
v  99.4085 46.1724 -9.1579
v  99.3688 24.4037 4.3882
v  99.3688 24.4037 -4.3882
v  122.4918 30.6662 10.0369
v  122.5202 48.2415 10.0369
v  122.5280 53.0112 5.2673
v  122.5280 53.0112 -5.2673
v  168.9385 21.4701 -11.8034
v  144.8509 26.3294 -10.8873
v  144.8786 48.3400 -10.8873
v  168.9637 46.1354 -11.8034
v  168.9336 16.7005 7.0337
v  144.8449 21.5598 6.1176
v  144.8449 21.5598 -6.1176
v  168.9336 16.7005 -7.0337
v  168.9385 21.4701 11.8034
v  194.6203 7.9539 16.1069
v  194.6340 42.3131 16.1069
v  168.9637 46.1354 11.8034
v  168.9686 50.9050 7.0337
v  194.6360 47.0828 11.3372
v  194.6360 47.0828 -11.3372
v  168.9686 50.9050 -7.0337
v  211.5941 -2.9500 19.6607
v  211.1714 37.2566 19.5716
v  211.1714 42.0264 14.8019
v  211.1714 42.0264 -14.8019
v  144.8509 26.3294 10.8873
v  144.8786 48.3400 10.8873
v  144.8846 53.1097 6.1176
v  144.8846 53.1097 -6.1176
v  122.4918 30.6662 -10.0369
v  122.5202 48.2415 -10.0369
v  122.4840 25.8966 5.2673
v  122.4840 25.8966 -5.2673
v  215.1752 -3.3768 15.8869
v  215.1752 -3.3768 -15.8869
v  215.1752 34.1587 -15.8869
v  215.1752 34.1587 15.8869
v  215.1752 36.2785 13.7671
v  215.1752 36.2785 -13.7671
v  215.1752 -5.4967 -13.7671
v  215.1752 -5.4967 13.7671
v  -63.6832 33.9996 4.6344
v  -65.6778 20.5838 4.6344
v  -65.6778 20.5838 -4.6344
v  -63.6832 33.9996 -4.6344
v  -63.3720 36.0932 -2.5145
v  -63.3720 36.0932 2.5145
v  -65.9891 18.4901 2.5145
v  -65.9891 18.4901 -2.5145
# 88 vertices

vn -0.4057 0.4495 0.7958
vn -0.4549 -0.3731 0.8086
vn 0.0326 -0.4808 0.8762
vn -0.0200 0.4556 0.8900
vn 0.3502 0.3783 -0.8569
vn 0.1717 -0.4678 -0.8670
vn -0.4490 -0.3837 -0.8069
vn -0.1182 0.4903 -0.8635
vn -0.3570 0.8943 0.2697
vn -0.0432 0.9537 0.2978
vn -0.0432 0.9537 -0.2978
vn -0.3570 0.8943 -0.2697
vn 0.0093 -0.9482 0.3176
vn -0.5413 -0.8044 0.2447
vn -0.5413 -0.8044 -0.2447
vn 0.0093 -0.9482 -0.3176
vn 0.0696 -0.4672 0.8814
vn -0.0651 0.4506 0.8903
vn 0.0326 -0.4808 -0.8762
vn -0.4549 -0.3731 -0.8086
vn -0.4057 0.4495 -0.7958
vn -0.0200 0.4556 -0.8900
vn -0.1406 0.9448 0.2960
vn -0.1406 0.9448 -0.2960
vn 0.0622 -0.9545 0.2917
vn -0.4420 -0.8492 0.2888
vn -0.4420 -0.8492 -0.2888
vn 0.0622 -0.9545 -0.2917
vn 0.0696 -0.4672 -0.8814
vn -0.0651 0.4506 -0.8903
vn 0.1397 -0.9461 0.2924
vn 0.1397 -0.9461 -0.2924
vn 0.0268 -0.4576 0.8888
vn -0.0970 0.4787 0.8726
vn -0.1462 0.9473 0.2850
vn -0.1462 0.9473 -0.2850
vn 0.0268 -0.4576 -0.8888
vn -0.0970 0.4787 -0.8726
vn 0.1014 -0.9509 0.2923
vn 0.1014 -0.9509 -0.2923
vn -0.0778 -0.4338 0.8976
vn -0.0708 0.4749 0.8772
vn -0.0604 0.9543 0.2926
vn -0.0604 0.9543 -0.2926
vn -0.2808 -0.4145 -0.8656
vn -0.1392 -0.4570 -0.8785
vn -0.0270 0.4776 -0.8782
vn -0.0700 0.4854 -0.8715
vn -0.3658 -0.8912 0.2681
vn -0.2013 -0.9356 0.2899
vn -0.2013 -0.9356 -0.2899
vn -0.3658 -0.8912 -0.2681
vn -0.2808 -0.4145 0.8656
vn -0.4490 -0.3837 0.8069
vn -0.1182 0.4903 0.8635
vn -0.0700 0.4854 0.8715
vn 0.0764 0.9573 0.2787
vn 0.1363 0.9475 0.2891
vn 0.1363 0.9475 -0.2891
vn 0.0764 0.9573 -0.2787
vn 0.1717 -0.4678 0.8670
vn 0.3502 0.3783 0.8569
vn 0.5124 0.8077 0.2917
vn 0.5124 0.8077 -0.2917
vn -0.1392 -0.4570 0.8785
vn -0.0270 0.4776 0.8782
vn 0.0253 0.9557 0.2932
vn 0.0253 0.9557 -0.2932
vn -0.0778 -0.4338 -0.8976
vn -0.0708 0.4749 -0.8772
vn -0.0791 -0.9501 0.3016
vn -0.0791 -0.9501 -0.3016
vn 0.8943 -0.2850 0.3451
vn 0.8943 -0.2850 -0.3451
vn 0.9335 0.1626 -0.3195
vn 0.9335 0.1626 0.3195
vn 0.9398 0.3255 0.1038
vn 0.9398 0.3255 -0.1038
vn 0.8538 -0.5038 -0.1311
vn 0.8538 -0.5038 0.1311
vn -0.9042 0.3108 0.2930
vn -0.9488 -0.0732 0.3072
vn -0.9488 -0.0732 -0.3072
vn -0.9042 0.3108 -0.2930
vn -0.8693 0.4852 -0.0946
vn -0.8693 0.4852 0.0946
vn -0.9553 -0.2768 0.1035
vn -0.9553 -0.2768 -0.1035
# 88 vertex normals

vt 0.0140 0.9854 0.0000
vt 0.0140 0.9083 0.0000
vt 0.2187 0.9083 0.0000
vt 0.2187 0.9854 0.0000
vt 0.7309 0.8217 0.0000
vt 0.7309 0.8986 0.0000
vt 0.6736 0.8986 0.0000
vt 0.6736 0.8217 0.0000
vt 0.0167 0.7703 0.0000
vt 0.2489 0.7703 0.0000
vt 0.2489 0.7921 0.0000
vt 0.0167 0.7921 0.0000
vt 0.0105 0.6842 0.0000
vt 0.0613 0.6928 0.0000
vt 0.0612 0.7473 0.0000
vt 0.0103 0.7558 0.0000
vt 0.3196 0.9083 0.0000
vt 0.3196 0.9854 0.0000
vt 0.2179 0.8986 0.0000
vt 0.0140 0.8986 0.0000
vt 0.0140 0.8217 0.0000
vt 0.2179 0.8217 0.0000
vt 0.3412 0.7703 0.0000
vt 0.3412 0.7921 0.0000
vt 0.4966 0.7103 0.0000
vt 0.7317 0.7107 0.0000
vt 0.7317 0.7318 0.0000
vt 0.4965 0.7314 0.0000
vt 0.3191 0.8986 0.0000
vt 0.3191 0.8217 0.0000
vt 0.4066 0.7102 0.0000
vt 0.4066 0.7312 0.0000
vt 0.4041 0.9083 0.0000
vt 0.4041 0.9854 0.0000
vt 0.4360 0.7703 0.0000
vt 0.4360 0.7921 0.0000
vt 0.4031 0.8986 0.0000
vt 0.4031 0.8217 0.0000
vt 0.3152 0.7100 0.0000
vt 0.3151 0.7311 0.0000
vt 0.4698 0.9083 0.0000
vt 0.4698 0.9854 0.0000
vt 0.4973 0.7681 0.0000
vt 0.4973 0.7942 0.0000
vt 0.6074 0.8986 0.0000
vt 0.5350 0.8986 0.0000
vt 0.5350 0.8217 0.0000
vt 0.6074 0.8217 0.0000
vt 0.1347 0.7033 0.0000
vt 0.1975 0.7056 0.0000
vt 0.1975 0.7350 0.0000
vt 0.1346 0.7371 0.0000
vt 0.6129 0.9083 0.0000
vt 0.6791 0.9083 0.0000
vt 0.6791 0.9854 0.0000
vt 0.6129 0.9854 0.0000
vt 0.6203 0.7638 0.0000
vt 0.6888 0.7531 0.0000
vt 0.6888 0.8093 0.0000
vt 0.6203 0.7986 0.0000
vt 0.7292 0.9083 0.0000
vt 0.7292 0.9854 0.0000
vt 0.7343 0.7445 0.0000
vt 0.7343 0.8179 0.0000
vt 0.5369 0.9083 0.0000
vt 0.5369 0.9854 0.0000
vt 0.5564 0.7660 0.0000
vt 0.5564 0.7963 0.0000
vt 0.4681 0.8986 0.0000
vt 0.4681 0.8217 0.0000
vt 0.2558 0.7078 0.0000
vt 0.2557 0.7331 0.0000
vt 0.9808 0.7151 0.0000
vt 0.9808 0.7955 0.0000
vt 0.8858 0.7955 0.0000
vt 0.8858 0.7151 0.0000
vt 0.7370 0.6528 0.0000
vt 0.7370 0.6722 0.0000
vt 0.6831 0.6722 0.0000
vt 0.6831 0.6528 0.0000
vt 0.0094 0.6225 0.0000
vt 0.0094 0.6046 0.0000
vt 0.2153 0.6046 0.0000
vt 0.2153 0.6225 0.0000
vt 0.0175 0.6469 0.0000
vt 0.0175 0.6295 0.0000
vt 0.2115 0.6295 0.0000
vt 0.2115 0.6469 0.0000
vt 0.7347 0.5826 0.0000
vt 0.7347 0.6006 0.0000
vt 0.6777 0.6006 0.0000
vt 0.6777 0.5826 0.0000
vt 0.1968 0.6528 0.0000
vt 0.1968 0.6722 0.0000
vt 0.0079 0.6722 0.0000
vt 0.0079 0.6528 0.0000
vt 0.3156 0.6046 0.0000
vt 0.3156 0.6225 0.0000
vt 0.2165 0.5826 0.0000
vt 0.2165 0.6006 0.0000
vt 0.0106 0.6006 0.0000
vt 0.0106 0.5826 0.0000
vt 0.3090 0.6295 0.0000
vt 0.3090 0.6469 0.0000
vt 0.3057 0.6528 0.0000
vt 0.3057 0.6722 0.0000
vt 0.3991 0.6046 0.0000
vt 0.3991 0.6225 0.0000
vt 0.3168 0.5826 0.0000
vt 0.3168 0.6006 0.0000
vt 0.3904 0.6295 0.0000
vt 0.3904 0.6469 0.0000
vt 0.3966 0.6528 0.0000
vt 0.3966 0.6722 0.0000
vt 0.4642 0.6046 0.0000
vt 0.4642 0.6225 0.0000
vt 0.4003 0.5826 0.0000
vt 0.4003 0.6006 0.0000
vt 0.4532 0.6295 0.0000
vt 0.4532 0.6469 0.0000
vt 0.6159 0.6528 0.0000
vt 0.6159 0.6722 0.0000
vt 0.5383 0.6722 0.0000
vt 0.5383 0.6528 0.0000
vt 0.6070 0.6225 0.0000
vt 0.6070 0.6046 0.0000
vt 0.6765 0.6046 0.0000
vt 0.6765 0.6225 0.0000
vt 0.6082 0.5826 0.0000
vt 0.6082 0.6006 0.0000
vt 0.5324 0.6006 0.0000
vt 0.5324 0.5826 0.0000
vt 0.5867 0.6469 0.0000
vt 0.5867 0.6295 0.0000
vt 0.6469 0.6295 0.0000
vt 0.6469 0.6469 0.0000
vt 0.7335 0.6046 0.0000
vt 0.7335 0.6225 0.0000
vt 0.7368 0.6295 0.0000
vt 0.7368 0.6469 0.0000
vt 0.5173 0.6295 0.0000
vt 0.5173 0.6469 0.0000
vt 0.4654 0.5826 0.0000
vt 0.4654 0.6006 0.0000
vt 0.5312 0.6046 0.0000
vt 0.5312 0.6225 0.0000
vt 0.4667 0.6528 0.0000
vt 0.4667 0.6722 0.0000
vt 0.7404 0.8356 0.0000
vt 0.7611 0.8339 0.0000
vt 0.7611 0.9785 0.0000
vt 0.7393 0.9904 0.0000
vt 0.7855 0.9720 0.0000
vt 0.7666 0.9616 0.0000
vt 0.7666 0.8359 0.0000
vt 0.7846 0.8373 0.0000
vt 0.8462 0.9699 0.0000
vt 0.8129 0.9648 0.0000
vt 0.8137 0.8366 0.0000
vt 0.8471 0.8320 0.0000
vt 0.7894 0.8335 0.0000
vt 0.8097 0.8386 0.0000
vt 0.8101 0.9649 0.0000
vt 0.7898 0.9701 0.0000
vt 0.8182 0.8244 0.0000
vt 0.8217 0.8025 0.0000
vt 0.8365 0.8027 0.0000
vt 0.8515 0.8250 0.0000
vt 0.7713 0.8260 0.0000
vt 0.7403 0.8255 0.0000
vt 0.7429 0.8017 0.0000
vt 0.7767 0.8023 0.0000
vt 0.8807 0.8008 0.0000
vt 0.8686 0.8233 0.0000
vt 0.8539 0.8230 0.0000
vt 0.8477 0.8002 0.0000
vt 0.8128 0.8251 0.0000
vt 0.7791 0.8245 0.0000
vt 0.7795 0.8005 0.0000
vt 0.8132 0.8011 0.0000
vt 0.9431 0.9067 0.0000
vt 0.9172 0.8967 0.0000
vt 0.9163 0.8416 0.0000
vt 0.9420 0.8364 0.0000
vt 0.9165 0.9095 0.0000
vt 0.9435 0.9095 0.0000
vt 0.9435 0.9721 0.0000
vt 0.9165 0.9721 0.0000
vt 0.8568 0.9030 0.0000
vt 0.9117 0.9169 0.0000
vt 0.9124 0.9569 0.0000
vt 0.8580 0.9728 0.0000
vt 0.9124 0.9120 0.0000
vt 0.8655 0.8979 0.0000
vt 0.8647 0.8580 0.0000
vt 0.9112 0.8422 0.0000
vt 0.9886 0.9139 0.0000
vt 0.9521 0.8997 0.0000
vt 0.9521 0.8815 0.0000
vt 0.9885 0.8731 0.0000
vt 0.9943 0.9826 0.0000
vt 0.9529 0.9703 0.0000
vt 0.9520 0.9521 0.0000
vt 0.9923 0.9418 0.0000
vt 0.9518 0.9073 0.0000
vt 0.9877 0.9176 0.0000
vt 0.9868 0.9357 0.0000
vt 0.9496 0.9482 0.0000
vt 0.9489 0.8361 0.0000
vt 0.9896 0.8445 0.0000
vt 0.9896 0.8627 0.0000
vt 0.9488 0.8770 0.0000
vt 0.8729 0.6976 0.0000
vt 0.8730 0.6629 0.0000
vt 0.8877 0.6483 0.0000
vt 0.8875 0.7123 0.0000
vt 0.9816 0.6486 0.0000
vt 0.9814 0.7126 0.0000
vt 0.9962 0.6633 0.0000
vt 0.9961 0.6980 0.0000
vt 0.9861 0.7205 0.0000
vt 0.9861 0.7901 0.0000
vt 0.8805 0.7901 0.0000
vt 0.8805 0.7205 0.0000
# 224 texture coords

o Ax_02
g Ax_02
usemtl wire_177027088
s 1
f 61/152/55 62/153/56 63/154/57 64/155/58 
f 65/156/59 66/157/60 67/158/61 68/159/62 
f 69/160/63 70/161/64 71/162/65 72/163/66 
f 73/164/67 74/165/68 75/166/69 76/167/70 
f 63/154/57 77/168/71 78/169/72 64/155/58 
f 79/170/73 80/171/74 81/172/75 82/173/76 
f 70/161/64 83/174/77 84/175/78 71/162/65 
f 85/176/79 86/177/80 87/178/81 88/179/82 
f 89/180/83 79/170/73 82/173/76 90/181/84 
f 91/182/85 85/176/79 88/179/82 92/183/86 
f 77/168/71 93/184/87 94/185/88 78/169/72 
f 83/174/77 95/186/89 96/187/90 84/175/78 
f 97/188/91 89/180/83 90/181/84 98/189/92 
f 99/190/93 91/182/85 92/183/86 100/191/94 
f 93/184/87 101/192/95 102/193/96 94/185/88 
f 95/186/89 103/194/97 104/195/98 96/187/90 
f 105/196/99 106/197/100 107/198/101 108/199/102 
f 109/200/103 110/201/104 111/202/105 112/203/106 
f 113/204/107 114/205/108 115/206/109 116/207/110 
f 117/208/111 118/209/112 119/210/113 120/211/114 
f 67/158/61 105/196/99 108/199/102 68/159/62 
f 74/165/68 109/200/103 112/203/106 75/166/69 
f 114/205/108 121/212/115 122/213/116 115/206/109 
f 118/209/112 123/214/117 124/215/118 119/210/113 
f 101/192/95 125/216/119 126/217/120 102/193/96 
f 103/194/97 127/218/121 128/219/122 104/195/98 
f 129/220/123 97/188/91 98/189/92 130/221/124 
f 131/222/125 99/190/93 100/191/94 132/223/126 
f 106/197/100 129/220/123 130/221/124 107/198/101 
f 110/201/104 131/222/125 132/223/126 111/202/105 
f 125/216/119 113/204/107 116/207/110 126/217/120 
f 127/218/121 117/208/111 120/211/114 128/219/122 
f 133/224/127 134/225/128 135/226/129 136/227/130 
s 2
f 122/228/116 123/229/117 118/230/112 115/231/109 
f 62/232/56 86/233/80 85/234/79 63/235/57 
f 81/236/75 72/237/66 71/238/65 82/239/76 
f 66/240/60 76/241/70 75/242/69 67/243/61 
f 64/244/58 70/245/64 69/246/63 61/247/55 
f 63/235/57 85/234/79 91/248/85 77/249/71 
f 79/250/73 88/251/82 87/252/81 80/253/74 
f 82/239/76 71/238/65 84/254/78 90/255/84 
f 78/256/72 83/257/77 70/245/64 64/244/58 
f 77/249/71 91/248/85 99/258/93 93/259/87 
f 89/260/83 92/261/86 88/251/82 79/250/73 
f 90/255/84 84/254/78 96/262/90 98/263/92 
f 94/264/88 95/265/89 83/257/77 78/256/72 
f 93/259/87 99/258/93 131/266/125 101/267/95 
f 97/268/91 100/269/94 92/261/86 89/260/83 
f 98/263/92 96/262/90 104/270/98 130/271/124 
f 116/272/110 117/273/111 127/274/121 126/275/120 
f 113/276/107 109/277/103 74/278/68 114/279/108 
f 105/280/99 112/281/106 111/282/105 106/283/100 
f 108/284/102 120/285/114 119/286/113 68/287/62 
f 115/231/109 118/230/112 117/273/111 116/272/110 
f 67/243/61 75/242/69 112/281/106 105/280/99 
f 114/279/108 74/278/68 73/288/67 121/289/115 
f 68/287/62 119/286/113 124/290/118 65/291/59 
f 130/271/124 104/270/98 128/292/122 107/293/101 
f 129/294/123 132/295/126 100/269/94 97/268/91 
f 101/267/95 131/266/125 110/296/104 125/297/119 
f 102/298/96 103/299/97 95/265/89 94/264/88 
f 126/275/120 127/274/121 103/299/97 102/298/96 
f 125/297/119 110/296/104 109/277/103 113/276/107 
f 106/283/100 111/282/105 132/295/126 129/294/123 
f 107/293/101 128/292/122 120/285/114 108/284/102 
s 4
f 121/300/115 133/301/127 136/302/130 122/303/116 
f 65/304/59 135/305/129 134/306/128 66/307/60 
s 8
f 123/308/117 137/309/131 138/310/132 124/311/118 
s 4
f 76/312/70 139/313/133 140/314/134 73/315/67 
s 8
f 73/316/67 140/317/134 133/318/127 121/319/115 
f 122/320/116 136/321/130 137/322/131 123/323/117 
f 66/324/60 134/325/128 139/326/133 76/327/70 
f 124/328/118 138/329/132 135/330/129 65/331/59 
s 4
f 61/332/55 141/333/135 142/334/136 62/335/56 
f 80/336/74 143/337/137 144/338/138 81/339/75 
s 8
f 72/340/66 145/341/139 146/342/140 69/343/63 
s 4
f 86/344/80 147/345/141 148/346/142 87/347/81 
s 8
f 62/348/56 142/349/136 147/350/141 86/351/80 
f 69/352/63 146/353/140 141/354/135 61/355/55 
f 87/356/81 148/357/142 143/358/137 80/359/74 
f 81/360/75 144/361/138 145/362/139 72/363/66 
s 1
f 146/364/140 145/365/139 144/366/138 141/367/135 
f 144/366/138 143/368/137 142/369/136 141/367/135 
f 143/368/137 148/370/142 147/371/141 142/369/136 
f 133/224/127 140/372/134 139/373/133 134/225/128 
f 135/226/129 138/374/132 137/375/131 136/227/130 
# 86 polygons

